<?xml version="1.0" encoding="UTF-8" standalone="no"?>
<!-- Created with Inkscape (http://www.inkscape.org/) -->

<svg
   viewBox="0 0 295 326 "
   version="1.1"
   id="svg1"
   xml:space="preserve"
   inkscape:version="1.4 (86a8ad7, 2024-10-11)"
   sodipodi:docname="brain-lat-lobes-simple.svg"
   xmlns:inkscape="http://www.inkscape.org/namespaces/inkscape"
   xmlns:sodipodi="http://sodipodi.sourceforge.net/DTD/sodipodi-0.dtd"
   xmlns="http://www.w3.org/2000/svg"
   xmlns:svg="http://www.w3.org/2000/svg">
  <sodipodi:namedview
   id="namedview1"
   pagecolor="#ffffff"
   bordercolor="#000000"
   borderopacity="0.25"
   inkscape:showpageshadow="2"
   inkscape:pageopacity="0.0"
   inkscape:pagecheckerboard="0"
   inkscape:deskcolor="#d1d1d1"
   inkscape:document-units="mm"
   showgrid="false"
   inkscape:zoom="32"
   inkscape:cx="223.01563"
   inkscape:cy="171.14063"
   inkscape:window-width="2256"
   inkscape:window-height="1425"
   inkscape:window-x="-9"
   inkscape:window-y="-9"
   inkscape:window-maximized="1"
   inkscape:current-layer="temporal-lobe-group" />
  
  <defs
   id="defs1">
  </defs>

  <g
   inkscape:groupmode="layer"
   id="brain-stem-group"
   inkscape:label="Brain Stem"
   style="display:inline;overflow:visible">
      <path
   id="brain-stem-fill"
   style="display:inline;overflow:visible;fill:#b1b1f2;fill-opacity:1"
   inkscape:label="brain-stem-fill"
   d="m 138.59,191.133 c 0,0 7.625,0.125 9.688,0 2.063,-0.125 16.688,-3.625 16.688,-3.625 0,0 0.75,2 1.125,2.875 0.375,0.875 1.625,2.625 2.375,3.5 0.75,0.875 7.125,4.625 8.25,5.375 1.125,0.75 9,6 9,6 l 3.75,3 c 0,0 -2.25,8.5 -3.25,10.75 -1,2.25 -4.75,13.25 -5.75,15.375 -1,2.125 -5.75,16.75 -6.5,20 -0.75,3.25 -3.25,14.625 -3.5,17.125 -0.25,2.5 -1.5,13.5 -1.5,15.625 0,2.125 0.125,10.625 0.125,12.375 0,1.75 0.875,17.75 1.25,20.375 0.375,2.625 2.125,15.75 2.625,17.625 0.5,1.875 3,12.875 3,12.875 h -18.5 c 0,0 -3.75,-17.375 -4,-19.875 -0.25,-2.5 -1.75,-13.375 -2,-16 -0.25,-2.625 -1.375,-13.375 -1.5,-16.625 -0.125,-3.25 -0.5,-21.5 -0.375,-25.125 0.125,-3.625 0.5,-11.125 0.5,-13.625 0,-2.5 1,-10.5 0.625,-13.25 -0.375,-2.75 -1.375,-14.625 -2.125,-17.25 -0.75,-2.625 -1.5,-8.25 -1.625,-10.625 -0.125,-2.375 0.875,-13 0.875,-13 0,0 -3,-1.5 -4,-2.625 -1,-1.125 -3.5,-3 -4,-4.5 -0.5,-1.5 -1.251,-6.75 -1.251,-6.75 z" />

      <path
   id="brain-stem-curves"
   style="display:inline;overflow:visible;fill:#000000;fill-opacity:1"
   inkscape:label="brain-stem-curves"
   d="m 136.60448,190.82141 c -0.54038,-0.004 -1.0955,0.0947 -1.6165,0.2357 -0.062,0.01 -0.10428,0.0726 -0.0943,0.13455 7.2e-4,0.004 0.006,0.007 0.007,0.0108 -0.33752,0.0107 -0.67541,0.0316 -0.99877,0.0344 -0.052,0 -0.0943,0.0531 -0.0943,0.1041 10e-4,0.052 0.0433,0.1041 0.0953,0.1041 1.531,-0.167 3.05364,0.6564 3.63664,2.1154 0.27605,0.68915 0.57515,1.36907 0.90449,2.03192 0.11554,0.58328 0.28708,1.15682 0.60496,1.70685 0.0132,0.0226 0.028,0.0433 0.0413,0.0658 0.25465,0.49418 0.56669,0.96457 0.92119,1.41223 1.51781,2.14602 3.38608,3.89312 5.71472,5.29242 0.11708,0.0706 0.23511,0.13221 0.35256,0.19937 0.28377,0.31631 0.53902,0.65163 0.73067,1.03118 0.27586,0.53562 0.46277,1.12798 0.54113,1.73828 -0.79647,4.82012 -1.41564,9.62799 -0.58238,14.64672 0.771,4.594 1.65572,8.77033 2.42672,13.35333 0.573,3.375 0.70851,6.59483 0.95851,9.92783 0.26152,3.41345 0.153,6.79831 -0.0854,10.18023 -0.29197,2.61721 -0.58729,5.24251 -0.68942,7.8802 -0.1313,1.40737 -0.25796,2.81623 -0.36042,4.2308 -0.12979,1.75788 -0.0156,3.50069 0.14633,5.23841 -0.0356,1.11091 -0.0596,2.22569 -0.0324,3.35871 0.104,4.583 0.30238,9.1669 0.19838,13.7599 -0.095,4.646 0.0295,9.25004 0.5205,13.91704 0.823,7.958 1.54263,15.7504 2.97963,23.5424 0.427,8.053 2.52038,15.87489 4.58238,23.62489 0.011,0.053 0.0619,0.0827 0.11392,0.0727 0.053,-0.014 0.0846,-0.0659 0.0746,-0.11785 -1.5,-7.833 -3.76033,-15.54166 -4.14633,-23.58266 -0.104,-2.094 -0.63741,-4.12515 -0.85441,-6.23915 -0.844,-7.823 -1.95734,-15.43811 -2.22834,-23.22911 -0.062,-1.76 -0.10433,-3.52063 -0.14633,-5.28063 -0.156,-5.219 0.0941,-10.42732 -0.16695,-15.65532 -0.26,-5.22 0.14587,-10.4483 0.28087,-15.6563 0.0226,-0.99132 0.0416,-1.96874 0.0619,-2.9482 0.18577,-1.59893 0.37228,-3.19198 0.5539,-4.81514 0.312,-2.771 0.28085,-5.52089 0.0628,-8.28089 -0.271,-3.438 -0.39608,-6.77133 -0.92708,-10.22933 -0.583,-3.697 -1.26055,-7.06244 -2.05255,-10.77144 -1.36404,-6.39723 -0.51011,-12.39274 0.51167,-18.49844 1.44349,0.59055 2.91868,1.04933 4.43605,1.55071 2.281,0.74 4.35457,1.73997 6.48957,2.90597 0.14012,0.0765 0.26869,0.16337 0.40266,0.24552 -2.58554,2.8052 -4.00752,6.49121 -4.06876,10.24799 -0.052,2.719 0.30194,5.38511 0.98994,8.10411 0.656,2.604 1.30188,4.97865 1.75988,7.63665 0.385,2.229 0.54243,4.2922 0.25043,6.5102 -0.312,2.417 -1.04241,4.69816 -1.07341,7.11516 0,0.052 0.0531,0.0933 0.1041,0.0933 0.051,0 0.10312,-0.0462 0.10312,-0.0982 0,-0.312 -0.0522,-0.6131 0.0118,-0.9261 0.396,-2.021 1.01051,-3.7715 1.39651,-5.7815 0.583,-3.042 0.37434,-5.85387 -0.29266,-8.88487 -1.042,-4.74 -2.36481,-9.12477 -2.31181,-13.82177 0.0295,-3.54088 1.42181,-7.05059 3.91064,-9.67053 0.64663,0.47701 1.24332,1.00207 1.83648,1.53793 0.97756,1.20958 2.01446,2.36706 3.12694,3.46281 1.646,3.688 2.70764,7.72038 2.32164,11.76138 -0.396,4.219 -0.89572,8.36394 -2.42672,12.33294 -3.281,8.53 -5.6144,17.09437 -6.7184,26.22937 -0.438,3.625 -0.42776,7.18788 -0.39676,10.80188 0,0.062 0.0531,0.1041 0.1041,0.1041 0.051,0 0.1041,-0.0421 0.1041,-0.1041 -0.239,-7.062 1.51092,-13.67721 2.85392,-20.81221 0.95458,-5.10762 2.76292,-9.59871 4.40462,-14.31086 1.10801,-2.78421 2.22495,-5.55779 3.34889,-8.36633 1.51,-3.781 3.63489,-7.15579 4.71889,-11.13579 0.906,-3.322 1.34379,-6.59403 1.87479,-9.91703 -0.115,-4.427 0.43774,-8.94701 -0.91726,-13.26101 -0.302,-0.958 -1.27084,-1.62527 -2.14584,-2.17727 -0.031,-0.042 -0.10353,-0.0418 -0.13553,-0.0108 -0.043,0.044 -0.0538,0.10629 -0.0118,0.14829 0.469,1.083 1.54245,1.79188 1.72945,3.02088 0.635,4.155 0.5421,8.17691 0.5421,12.27991 -0.781,4.198 -1.02147,8.5431 -2.82347,12.4891 -1.36584,2.99249 -2.70509,5.95886 -3.98233,8.9379 0.37367,-2.05797 0.62794,-4.13348 0.83476,-6.24897 0.386,-3.958 -0.66684,-7.80292 -2.14584,-11.45792 -0.16392,-0.40897 -0.37988,-0.77509 -0.63148,-1.11073 1.17579,0.51421 2.41998,0.71443 3.68575,1.05672 1.25,0.345 2.25093,1.18832 2.68893,2.44832 0.03,0.052 0.0935,0.0722 0.13454,0.0412 0.052,-0.021 0.0731,-0.0825 0.0521,-0.13553 -0.562,-1.438 -1.78115,-2.4063 -3.11515,-3.0523 -1.146,-0.553 -2.37513,-0.83276 -3.50013,-1.43776 -2.354,-1.261 -3.82192,-3.49012 -6.19692,-4.76112 -1.146,-0.614 -2.2919,-1.10359 -3.4579,-1.66659 -2.542,-1.229 -5.25043,-1.78097 -7.81243,-2.90597 -4.25,-1.865 -8.47855,-5.04185 -9.39555,-9.92685 -0.0183,-0.0977 -0.0303,-0.20077 -0.0432,-0.30248 0.0423,-0.49303 0.22487,-0.94001 0.66585,-1.21582 1.135,-0.697 2.39633,-1.12495 3.70833,-1.20795 0.229,0.011 0.4172,-0.16678 0.4272,-0.39578 0.01,-0.229 -0.17678,-0.4172 -0.39578,-0.4272 -1.5,0.01 -2.9469,0.542 -4.2799,1.26 -0.12557,0.0677 -0.2353,0.15333 -0.32998,0.25142 -0.11464,-0.53835 -0.33041,-1.01357 -0.82592,-1.30617 -0.4635,-0.271 -0.98873,-0.37803 -1.5291,-0.38203 z m -0.75522,0.37221 c 0.86578,-0.0292 1.78571,0.13472 2.04371,1.00172 0.0737,0.2516 0.12734,0.50477 0.17382,0.75915 -0.23989,-0.37533 -0.51172,-0.73493 -0.83182,-1.07145 -0.44555,-0.47289 -1.01391,-0.63139 -1.6165,-0.67371 0.0769,-0.005 0.15247,-0.0131 0.23079,-0.0157 z m 11.50113,13.74321 c 0.10653,0.0507 0.21328,0.10051 0.32015,0.14928 -0.0179,0.10485 -0.0332,0.20945 -0.0511,0.31426 -0.0233,-0.0476 -0.0465,-0.0956 -0.0717,-0.1424 -0.0606,-0.11199 -0.12669,-0.21846 -0.19739,-0.32114 z m 39.80856,1.01056 c -0.0469,-0.004 -0.0957,0.002 -0.1424,0.0177 -0.188,0.073 -0.29182,0.27065 -0.22882,0.45765 0.239,0.875 1.06243,1.45864 1.07243,2.37564 0.0606,3.95897 -1.6262,7.59049 -2.64671,11.49524 -0.55218,1.36523 -1.10929,2.73105 -1.64596,4.10705 -3.271,8.375 -5.98865,16.63623 -8.67765,25.25023 -2.125,6.833 -4.13619,13.47918 -4.81219,20.59518 -0.22595,2.37266 -0.42821,4.7269 -0.61871,7.07686 -0.10967,0.81186 -0.21688,1.62242 -0.34765,2.44537 -0.427,2.698 -0.45821,5.30141 -0.64621,7.97841 -0.14027,1.9132 -0.0451,3.82292 0.0628,5.72847 -0.0156,0.22755 -0.0499,0.45346 -0.11785,0.67665 -0.011,0.053 0.0207,0.10392 0.0717,0.11392 0.0331,0.008 0.0618,-0.003 0.0845,-0.0216 0.13616,2.36047 0.25908,4.7158 -0.0186,7.06508 0.167,10.073 1.33329,19.84338 2.83329,30.00938 0.312,2.156 0.55247,4.17818 1.12547,6.29218 1.219,4.512 1.89519,8.91699 3.33219,13.26199 0.021,0.094 0.10438,0.15553 0.19838,0.13553 0.094,-0.021 0.15551,-0.10438 0.13651,-0.19838 l -0.0727,0.01 c 0.042,-0.292 0.0308,-0.58225 -0.0422,-0.86325 -0.365,-1.281 -0.73952,-2.50059 -0.95752,-3.80359 -0.854,-5.177 -2.46888,-9.84427 -3.02088,-15.00027 -0.542,-5.011 -1.28119,-9.84314 -1.68819,-14.84314 -0.406,-5.021 -1.1358,-9.96945 -0.8328,-14.99045 0.25063,-4.06897 -0.29838,-8.07294 -0.31721,-12.1051 0.20391,-1.38037 0.31855,-2.71189 0.40068,-4.09233 0.448,-7.167 1.2508,-14.23927 2.3128,-21.30227 1.708,-6.01 2.93743,-12.17752 5.23743,-18.00052 1.406,-5.25 3.33346,-10.2495 5.12546,-15.4265 2.562,-7.406 6.19731,-14.32292 7.65531,-21.97892 0,-0.261 -0.20765,-0.47042 -0.45765,-0.47042 -0.261,-0.01 -0.46925,0.19765 -0.47925,0.45765 -0.0645,0.35941 -0.15016,0.71258 -0.22588,1.0685 -0.0403,-1.20174 -0.5837,-2.31336 -1.33563,-3.27523 -0.0465,-0.141 -0.17565,-0.23502 -0.31623,-0.2465 z" />

  </g>

  <g
   inkscape:groupmode="layer"
   id="cerebellum-group"
   inkscape:label="Cerebellum"
   style="display:inline;overflow:visible">
      <path
   id="cerebellum-fill"
   style="display:inline;overflow:visible;fill:#e0cbbd"
   inkscape:label="cerebellum-fill"
   d="m 164.965,187.508 c 0,0 8.125,-3.125 10.5,-3.75 2.375,-0.625 7.375,-2.125 9.688,-2.188 2.313,-0.062 9.938,-0.438 12.312,-0.688 2.374,-0.25 8.75,-1.625 11.375,-2.375 2.625,-0.75 8.5,-2.625 11.25,-3.625 2.75,-1 9.875,-3.75 12.25,-4.625 2.375,-0.875 6.875,-2.75 9.25,-3.5 2.375,-0.75 7.375,-2.25 9.75,-2.25 2.375,0 6,-0.5 7.625,0 1.625,0.5 4,1.75 4.5,3.5 0.5,1.75 1.625,4.125 1.375,6.125 -0.25,2 -0.375,5.125 -1.875,6.875 -1.5,1.75 -1.625,2 -2.875,3.375 -1.25,1.375 -2.125,2.625 -3.5,3.75 -1.375,1.125 -2.5,2.5 -3.375,3.5 -0.875,1 -1.5,1.875 -2.375,2.375 -0.875,0.5 -2.25,1.125 -2.25,1.125 0,0 0,1 -0.5,2 -0.5,1 -2.875,2.625 -2.875,2.625 l -0.75,1.875 c 0,0 -0.375,1.125 -1.5,2.125 -1.125,1 -3.5,2.625 -3.5,2.625 l -2,1.625 c 0,0 -1.75,1.625 -3.25,2.25 -1.5,0.625 -2.5,1.25 -3.625,1.875 -1.125,0.625 -3.125,2.25 -5,2.625 -1.875,0.375 -7.5,1 -10.25,0.875 -2.75,-0.125 -10,-0.5 -12.5,-1.125 -2.5,-0.625 -8.125,-3.125 -10.125,-4.375 -2,-1.25 -7.75,-5.625 -10,-7 -2.25,-1.375 -5.125,-3.5 -7.25,-4.625 -2.125,-1.125 -3.5,-2 -5.5,-3.375 -2,-1.375 -3.25,-2.25 -3.625,-3.375 -0.375,-1.125 -1.375,-4.249 -1.375,-4.249 z" />
      
      <path
   id="cerebellum-curves"
   style="display:inline;overflow:visible;fill:#000000;fill-opacity:1"
   inkscape:label="cerebellum-curves"
   d="m 255.656,163.71407 c -0.073,0 -0.13552,0.0517 -0.13552,0.12473 0,0.073 0.0527,0.13552 0.12472,0.13552 2.095,0.406 3.9379,1.54162 5.9789,2.10362 0.37048,0.39497 0.67577,0.83327 0.95458,1.28848 -0.11443,-0.0204 -0.23011,-0.0422 -0.34078,-0.057 -6.739,-0.938 -13.06168,0.84307 -19.41668,2.79107 -5.427,1.656 -10.36321,3.9792 -15.77121,5.6882 -9.677,3.042 -19.65581,3.14581 -29.43781,5.05181 -0.052,0.021 -0.0829,0.0737 -0.0619,0.12571 0.009,0.052 0.0607,0.0827 0.12374,0.0727 6.281,-0.97 12.54241,-1.41646 18.93841,-2.16646 6.323,-0.74 12.16634,-2.65693 18.01034,-4.99093 6.155,-2.469 12.18856,-4.45713 18.87556,-5.58213 3.188,-0.531 6.20754,-0.76061 9.39554,-0.0216 0.0665,0.0147 0.13699,0.0358 0.20722,0.0619 0.21817,0.47432 0.40087,0.96763 0.55586,1.4741 -5.4551,-0.0237 -10.88719,0.80763 -16.16993,2.17433 -7.854,3.031 -15.58348,5.62523 -24.03048,7.60423 -8.137,1.917 -15.80219,3.18753 -23.93719,3.91653 -7.323,0.656 -14.58298,0.59462 -21.81198,1.50062 -0.053,0.021 -0.0739,0.0825 -0.0629,0.13454 0.018,0.051 0.0707,0.0719 0.12374,0.0619 0.781,-0.292 1.6041,-0.2813 2.4061,-0.3123 6.469,-0.302 12.87482,-0.34337 19.35382,-0.80137 8.375,-0.583 16.3225,-1.92734 24.6875,-3.92734 8.062,-1.938 15.34391,-4.55308 23.02091,-7.22908 5.37176,-1.85934 10.98845,-2.4777 16.62856,-2.39627 0.12517,0.49833 0.22539,1.00372 0.31034,1.5124 -0.0887,0.0758 -0.19635,0.14405 -0.33489,0.1974 -2.25,0.863 -4.58308,0.91696 -7.01008,1.42696 -5.08998,1.06921 -9.60504,2.60805 -14.33933,4.3015 -4.15789,1.14977 -8.31453,2.2975 -12.40071,3.71816 -6.646,1.615 -13.25939,2.82311 -20.14539,3.72011 -5.875,0.76 -11.61303,1.15485 -17.47903,0.88485 -6.448,-0.292 -12.87539,0.36506 -19.32339,0.27106 -0.062,0 -0.1041,0.0531 -0.1041,0.1041 -0.001,0.051 0.0411,0.10312 0.1041,0.10312 8.625,0.114 17.24983,0.0729 25.87483,0.11392 3.656,0.021 7.2294,-0.19813 10.9384,-0.76013 7.375,-1.125 14.41722,-2.19788 21.46922,-4.06188 2.15089,-0.79399 4.33926,-1.46878 6.53377,-2.12326 -2.36297,1.20543 -4.60134,2.614 -6.82152,4.08054 -2.38554,1.08983 -4.8244,2.07091 -7.39014,2.84607 -5.448,1.646 -10.94851,2.16613 -16.52151,2.40413 -4.271,0.188 -8.49978,0.20807 -12.78078,-0.11393 -8.5,-0.656 -16.90532,-1.27101 -25.35432,-1.91701 -0.052,-0.012 -0.10391,0.0215 -0.11491,0.0835 -0.011,0.052 0.0315,0.1041 0.0835,0.1041 12.802,0.979 25.53096,3.0212 38.41696,2.5102 5.542,-0.219 10.97923,-0.81285 16.42723,-2.36485 1.40942,-0.40473 2.75652,-0.90598 4.07072,-1.46231 -1.47719,0.97783 -2.97669,1.94973 -4.53917,2.87061 -3.44549,2.03157 -7.03297,3.12099 -10.84608,3.89689 -2.40396,-0.33205 -4.7081,0.34997 -6.99731,0.7837 -1.75779,-0.0127 -3.50514,-0.12872 -5.28162,-0.20133 -3.417,-0.156 -6.79153,-0.67688 -10.21853,-0.93788 -2.5,-0.188 -4.97951,-0.1463 -7.47951,-0.3123 -2.812,-0.177 -5.5418,-0.14576 -8.3958,-0.78076 -3.26,-0.729 -5.78142,-2.5944 -8.85442,-3.5944 -0.10476,-0.0342 -0.20951,-0.0447 -0.31426,-0.0687 -0.88771,-0.65412 -1.94958,-0.35433 -2.93446,-0.11294 -2.188,0.542 -4.13632,1.41699 -6.22932,2.08299 -0.052,0.01 -0.0827,0.0619 -0.0727,0.11294 0.019,0.067 0.0708,0.0986 0.12275,0.0776 2.74,-0.448 5.38497,-1.5415 8.16697,-1.5615 0.542,0 0.92746,0.61292 1.12546,1.15492 0.281,0.771 0.22841,1.61405 0.63541,2.35405 0.656,1.177 1.55333,2.0731 2.66733,2.8441 4.553,3.146 8.78088,5.23961 13.32288,8.40561 4.198,2.927 7.73982,5.54244 12.01082,8.25044 5.323,3.375 11.09564,4.33247 17.06264,4.68747 5.438,0.322 10.90543,0.22941 16.19743,-1.44759 1.594,-0.5 2.7602,-1.64609 4.2082,-2.40609 2.83623,-1.48861 5.73266,-2.82978 7.79771,-5.27671 0.74552,-0.29131 1.48547,-0.60271 2.21262,-0.95262 0.15146,-0.0788 0.23255,-0.233 0.23374,-0.38988 1.277,-0.85423 2.32546,-2.00327 2.92365,-3.41567 0.11385,-0.0916 0.22854,-0.18252 0.34078,-0.27597 0.146,-0.073 0.20772,-0.26258 0.12472,-0.40658 -0.0377,-0.0755 -0.10639,-0.12712 -0.18365,-0.14927 0.0312,-0.11222 0.0765,-0.21698 0.10214,-0.33195 0.802,-0.802 1.8337,-1.28077 2.6467,-2.09477 0.958,-0.938 1.07287,-2.24965 1.54187,-3.41665 2.39781,-0.80906 4.1626,-2.68364 5.49473,-4.77389 0.13314,-0.088 0.26795,-0.17169 0.39872,-0.26516 0.0767,-0.0767 0.0973,-0.1848 0.0717,-0.28578 1.51849,-1.3108 2.86204,-2.7621 4.1866,-4.25241 0.2855,-0.20098 0.57063,-0.40428 0.84852,-0.61969 0.1246,-0.0946 0.13718,-0.265 0.053,-0.39774 0.75611,-0.85625 1.51921,-1.71482 2.32164,-2.56224 1.833,-1.927 2.67738,-4.45813 2.93838,-7.06213 0.22206,-2.3376 -0.41469,-4.60151 -1.23349,-6.79599 -0.007,-0.0574 -0.0265,-0.11221 -0.0629,-0.16302 -0.19908,-0.52688 -0.40005,-1.05386 -0.60987,-1.57231 -1.78,-2.469 -5.05226,-2.6665 -7.82226,-3.0415 z m 8.5981,8.81023 c 0.12247,0.8319 0.20562,1.6607 0.274,2.46404 -5.11053,0.62522 -10.06632,1.73968 -15.06312,3.24871 -5.72258,1.7386 -11.42151,3.23493 -16.73462,5.74418 0.73696,-0.48206 1.47549,-0.95238 2.22048,-1.39946 0.6575,-0.37097 1.31514,-0.73971 1.97299,-1.11466 0.009,-0.004 0.01,-0.0154 0.0167,-0.0216 1.71949,-0.92939 3.49715,-1.75104 5.39947,-2.42769 4.333,-1.552 8.47933,-3.12517 12.96933,-4.37517 2.979,-0.823 5.96862,-1.03038 8.84362,-2.06138 0.0418,-0.0152 0.0633,-0.0399 0.10115,-0.057 z m 0.16303,3.18783 c -0.17158,0.91388 -0.3995,1.81316 -0.72281,2.67715 -6.58187,0.52491 -12.76038,2.72452 -19.17804,4.59809 -1.865,0.553 -3.63667,0.9994 -5.55267,1.4574 -3.20199,0.77557 -6.59375,0.72173 -9.5625,1.81096 0.63083,-0.44297 1.26248,-0.88564 1.88657,-1.3101 5.81461,-2.85421 12.12481,-4.21387 18.43853,-6.06237 4.89825,-1.43634 9.71396,-2.51262 14.69092,-3.17113 z m -0.99878,3.36755 c -0.27677,0.62714 -0.60223,1.233 -0.99288,1.80604 -0.004,0.003 -0.009,0.004 -0.0128,0.008 -5.771,2.938 -11.73825,4.90595 -18.34425,6.24995 -3.322,0.677 -6.3858,1.12594 -9.6558,1.42794 -2.89068,0.2873 -5.76125,-0.007 -8.65114,0.11883 0.84852,-0.52629 1.69716,-1.07668 2.55734,-1.6823 0.0727,-0.0515 0.14256,-0.0979 0.21507,-0.14928 2.12934,-0.89163 4.60538,-0.8676 6.93151,-1.18438 3.167,-0.438 6.11455,-1.05263 9.17655,-1.93863 6.3019,-1.84664 12.36263,-3.92051 18.77636,-4.65603 z m -1.97201,3.02676 c -1.1776,1.35518 -2.37597,2.6256 -3.59637,3.89395 -5.19274,3.0442 -11.19444,4.37166 -17.20602,5.07833 -6.6156,0.77889 -13.00291,1.16553 -19.7005,0.17088 1.39872,-0.62412 2.74237,-1.32203 4.06187,-2.1046 0.0284,-0.003 0.0559,-0.01 0.0845,-0.0118 3.177,-0.219 6.30263,0.4894 9.50063,0.1974 1.99,-0.188 3.89603,-0.47876 5.91703,-0.78076 2.886,-0.417 5.60336,-0.89588 8.36436,-1.75988 4.30996,-1.3463 8.7435,-2.37809 12.57454,-4.68354 z m -5.24725,5.63223 c -0.82826,0.87878 -1.61013,1.75618 -2.37073,2.64081 -6.69828,3.17451 -14.3497,2.95855 -21.58217,3.74466 -5.15143,0.009 -10.23833,-0.0815 -15.37346,-1.29732 1.02162,-0.33139 2.03297,-0.70152 3.02971,-1.11073 0.0759,-0.0312 0.14649,-0.0676 0.22195,-0.0992 0.26775,-0.0107 0.53704,-0.004 0.81022,0.0471 6.76,1.239 13.09416,0.92692 19.71916,0.11392 5.33653,-0.64001 10.78954,-1.62243 15.54532,-4.03929 z m -90.52901,0.71102 c 0.0804,0.0366 0.16302,0.0556 0.24258,0.0992 3.447,1.886 6.84403,3.66681 10.73903,4.01081 2.9692,0.26129 5.91635,0.41271 8.86719,0.54604 2.03128,0.19882 4.05779,0.27377 6.09183,0.82887 3.75,1.01 7.15607,2.09476 11.01107,2.91776 4.646,1 9.06199,1.09405 13.64599,1.31205 2.75957,0.12772 5.52817,0.083 8.27008,-0.29167 0.10549,0.0205 0.20698,0.041 0.31329,0.0619 3.594,0.708 6.93819,1.05273 10.51119,0.56273 0.667,-0.083 1.32271,0.021 1.98871,-0.053 3.62488,-0.43179 7.13804,-0.9983 10.49056,-2.45127 -6.08901,3.87939 -13.52918,4.79852 -20.59419,5.30912 -5.833,-0.406 -11.61545,-0.14636 -17.51145,-0.80236 -6.78,-0.761 -13.04152,-2.10423 -19.86352,-3.60423 -4.511,-0.988 -8.5218,-1.80182 -13.0538,-2.74982 -2.208,-0.458 -4.45729,-0.66684 -6.17629,-2.14584 -0.042,-0.031 -0.11533,-0.0312 -0.14633,0.01 -0.031,0.04 -0.0312,0.10236 0.0108,0.14436 1.812,1.543 4.20801,1.82305 6.52101,2.35405 6.573,1.5 12.42777,2.93768 19.08277,4.29168 3.667,0.75 6.97911,1.35384 10.62511,1.92684 6.948,1.073 13.64629,0.89622 20.47929,1.30322 7.10787,-0.45489 14.62961,-1.4053 20.55589,-5.6774 -0.13141,0.4448 -0.2493,0.89026 -0.45666,1.2934 -6.03117,4.20189 -13.4512,5.5083 -20.64232,5.91309 -6.729,0.375 -13.29171,-0.17713 -20.07271,-1.19813 -7.719,-1.155 -14.72923,-2.73826 -22.51023,-4.26026 -3.552,-0.688 -6.83318,-1.44727 -10.07318,-2.78027 -0.052,-0.03 -0.11453,4e-5 -0.13553,0.053 -0.019,0.041 0.002,0.10372 0.054,0.12472 5.927,2.302 11.95732,3.36255 18.39532,4.73755 6.28,1.345 12.00072,2.70817 18.20872,3.33317 7.03,0.72 13.86376,1.2717 20.94676,0.3457 4.9354,-0.63796 9.7726,-1.87624 13.88856,-4.48221 -0.29815,0.2072 -0.59785,0.41012 -0.89566,0.64424 -0.219,0.167 -0.39565,0.37521 -0.45765,0.64621 -0.0904,0.40686 -0.22616,0.7813 -0.38202,1.13921 -5.62013,2.87016 -12.03805,3.68774 -18.27846,4.04322 -4.677,0.26 -9.24991,0.20675 -13.97891,-0.47925 -9.552,-1.396 -18.94762,-1.64609 -27.96862,-4.70809 -0.053,-0.021 -0.10451,5e-5 -0.13651,0.0521 -0.019,0.05 0.002,0.10354 0.054,0.13454 10.78,3.438 21.99993,4.58258 33.32193,5.66758 3.74,0.354 7.4066,0.25033 11.1466,-0.0727 5.073,-0.448 10.05171,-1.21974 14.81171,-3.13774 0.0623,-0.0249 0.11971,-0.0582 0.1807,-0.0854 -0.99394,1.23793 -2.41445,2.09151 -3.92537,2.66634 -0.0405,0.0474 -0.0857,0.0879 -0.12669,0.13454 -7.35951,2.72848 -15.38443,3.40061 -23.17902,3.33514 -5.26,-0.053 -10.37473,-0.81206 -15.68773,-1.53106 -2.928,-0.396 -5.79166,-0.81236 -8.45766,-2.06236 -0.053,-0.03 -0.10451,2.1e-4 -0.13651,0.0432 -0.021,0.052 5e-5,0.11551 0.052,0.13651 2.521,1.167 5.18839,1.79191 7.97939,2.19691 6.365,0.928 12.46908,2.12464 18.79208,1.93764 6.34536,-0.18501 12.90031,-0.51452 18.98653,-2.46305 -0.4239,0.34763 -0.86679,0.66877 -1.31991,0.97618 -5.88482,2.87153 -12.73537,2.41769 -19.09555,3.33023 -6.625,0.062 -13.21893,-0.93842 -19.67693,-2.33342 -0.053,-0.01 -0.1047,0.0207 -0.1257,0.0727 -0.009,0.052 0.0334,0.1157 0.0854,0.1257 6.552,1.562 13.21925,3.06127 19.98825,2.78027 3.948,-0.156 7.83262,-0.57294 11.80262,-0.98994 0.92449,-0.0965 1.81844,-0.27091 2.68795,-0.50675 -0.31545,0.1644 -0.62741,0.32806 -0.94378,0.49497 -0.521,0.271 -0.9904,0.67697 -1.5124,0.98797 -5.458,3.281 -11.83314,2.75016 -17.80214,2.51216 -5.854,-0.229 -11.54158,-1.24989 -16.79158,-4.49989 -4.896,-3.031 -8.86366,-6.24035 -13.71866,-9.40635 -4.053,-2.646 -7.78138,-4.58322 -11.76138,-7.38622 -0.969,-0.678 -1.82214,-1.44719 -2.23914,-2.51019 -0.36447,-0.92869 -0.44148,-2.01115 -0.99485,-2.86767 z m 86.9238,3.37541 c -0.2066,0.24302 -0.40384,0.47269 -0.61576,0.72084 -0.20239,0.23319 -0.42118,0.44914 -0.64916,0.65308 -0.52804,0.36024 -1.06764,0.69646 -1.62239,1.00074 -0.36687,0.14939 -0.73205,0.30063 -1.03216,0.53327 -4.86986,2.33115 -10.56427,2.82379 -15.90575,3.07489 -2.56788,0.12008 -5.10691,-0.076 -7.59933,-0.54702 -0.0515,-0.0352 -0.11223,-0.0594 -0.18267,-0.055 -0.0263,0.002 -0.0523,0.002 -0.0786,0.004 -3.56053,-0.70175 -7.02176,-1.97187 -10.32656,-3.72207 0.57919,-0.14873 1.15557,-0.31164 1.72846,-0.4881 5.1369,2.03036 10.74084,1.95415 16.17484,1.82176 2.97,-0.072 5.89585,-0.25041 8.88585,-0.63541 3.79136,-0.48754 7.77397,-0.79325 11.22319,-2.36091 z m -61.04798,1.58704 c 2.7709,0.20927 5.51479,0.61925 8.32508,0.92904 2.333,0.26 4.6246,0.2184 6.9266,0.1974 2.22811,-0.0104 4.4412,-0.28245 6.61725,-0.76406 1.92898,0.80522 3.75607,1.80774 5.69704,2.63983 0.97617,0.42227 1.95755,0.70848 2.96097,0.94574 -6.39831,0.2607 -12.71231,-0.0412 -19.25268,-1.22661 -3.635,-0.667 -6.89635,-1.5948 -10.44735,-2.5318 -0.27594,-0.0737 -0.55153,-0.13251 -0.82691,-0.18954 z" />
  </g>
  
  

  <g
   inkscape:groupmode="layer"
   id="temporal-lobe-group"
   inkscape:label="Temporal Lobe"
   style="display:inline">
      <path
   style="display:inline;fill:#fbd4f3;fill-opacity:1;stroke:#000000;stroke-width:0.499556;stroke-opacity:0"
   d="m 123.24857,115.60206 -9.23486,3.41641 -6.10704,3.05929 -7.13136,5.58159 -5.423726,5.43791 -11.120045,8.9 -5.446084,5.35097 -6.25089,7.98232 -2.413274,10.3087 1.91367,6.01918 1.60391,2.4645 5.146584,6.43793 11.552209,4.0914 15.643626,5.77611 10.10818,1.92535 20.50998,-1.06542 16.41159,-1.05577 10.08115,-2.67355 18.28167,-5.54867 7.50463,-0.83378 15.05596,-1.81904 c 0,0 4.75127,-0.44597 10.26984,-2.17464 3.31004,-1.03688 11.25544,-4.01224 11.02577,-4.46945 -0.17899,-0.35642 -0.0797,-8.62441 -0.0797,-8.62441 0,0 0.94894,-7.12869 1.00835,-7.85137 0.0678,-0.8246 2.76826,-10.28112 5.46564,-17.70737 0.89763,-8.31565 6.29092,-12.80839 11.79161,-18.70389 -0.45307,0.0152 -89.36918,-12.6711 -88.63633,-12.45152 1.73893,0.52105 -2.8535,-0.0979 -4.36807,0.54064 -1.19572,0.50404 -3.42992,1.1833 -4.24481,1.45982 -4.7065,1.59703 -9.60008,2.92647 -9.60008,2.92647 z"
   id="temporal-lobe-fill"
   sodipodi:nodetypes="cccccccccccccccccccccsscsscssscc" />
      <path
   id="temporal-lobe-curves"
   style="display:inline;overflow:visible;fill:#000000;fill-opacity:1"
   d="m 214.10967,115.12075 c -1.2259,0.96235 -2.52439,1.83575 -3.91508,2.60846 -4.688,1.823 -9.57142,2.94737 -14.27942,4.80237 -2.823,1.104 -5.48894,2.39626 -8.33294,3.43826 -2.1116,0.77038 -4.29765,1.096 -6.51217,1.31893 -0.0954,-0.0859 -0.23244,-0.12309 -0.36533,-0.0835 -0.16424,0.0482 -0.3237,0.10296 -0.48122,0.16204 -0.29029,0.0263 -0.57911,0.0566 -0.87012,0.0815 -1.698,0.146 -3.35414,0.38472 -4.97914,0.94672 -2.188,0.74 -3.87527,2.29286 -5.95827,3.24086 -1.573,0.708 -3.22854,1.10391 -4.95754,1.15591 -0.20104,0.006 -0.39382,0.0377 -0.58237,0.0805 1.59915,-2.16816 2.63826,-4.75124 3.59834,-7.28113 1.917,-5.042 7.56137,-6.60381 12.36437,-7.35381 0.156,-0.01 0.27143,-0.1545 0.25043,-0.3015 -0.021,-0.156 -0.1563,-0.27143 -0.3123,-0.25043 -3.114,0.323 -6.14633,0.938 -8.96933,2.521 -3.219,1.812 -4.20797,5.32239 -5.64597,8.41739 -0.9431,2.04995 -2.06271,4.09805 -3.74761,5.64205 -0.11002,0.0854 -0.22152,0.17064 -0.33096,0.25436 -0.0353,0.0225 -0.0555,0.0597 -0.0697,0.0972 -0.34233,0.28162 -0.69991,0.54885 -1.09011,0.78567 -1.271,0.771 -2.57343,1.20817 -4.03143,1.47017 -3.219,0.572 -6.2811,0.48851 -9.3651,1.39651 -3.583,1.052 -6.54165,3.08281 -10.32165,3.79181 -1.615,0.302 -3.12532,0.4582 -4.75032,0.2082 -2.85258,-0.43724 -4.26699,-2.75789 -5.77462,-4.84852 1.35708,-0.88699 2.33262,-2.36972 2.62902,-4.06876 0.385,-2.208 0.177,-4.35433 -0.438,-6.44833 -0.021,-0.083 -0.10456,-0.14572 -0.18856,-0.12472 -0.083,0.021 -0.13473,0.0946 -0.12473,0.18758 0.719,3.281 0.62519,7.2923 -2.31181,9.5733 -0.0775,0.0603 -0.15573,0.11542 -0.23472,0.16794 -0.0688,-10e-4 -0.13786,0.0159 -0.19248,0.0609 -0.0376,0.0289 -0.0639,0.0662 -0.0835,0.10606 -1.82878,1.00139 -3.99106,0.18853 -5.9897,0.33194 -2.958,0.219 -5.45796,1.79263 -7.94796,3.19863 -0.062,0.021 -0.0829,0.0934 -0.0619,0.14535 0.021,0.062 0.0953,0.0829 0.14633,0.0619 v -0.0118 c 2.083,-0.885 4.03105,-1.80139 6.35405,-2.28039 1.864,-0.385 3.59455,-0.0824 5.39555,-0.0304 0.9084,0.0264 1.76362,-0.18121 2.52394,-0.56568 0.87035,2.32909 2.61441,4.29263 4.932,5.11761 -1.27671,0.13194 -2.54529,0.38307 -3.84189,0.7071 -2.354,0.583 -4.59501,1.17738 -6.52101,2.71938 -2.646,2.136 -4.46848,5.04175 -7.64548,6.26075 -2.125,0.812 -4.33333,1.30319 -6.22933,2.72919 -2.833,2.146 -4.58248,5.01011 -7.645481,6.84411 -4.72,2.833 -10.19828,4.53062 -15.43828,2.54162 -0.052,-0.01 -0.103724,0.0207 -0.124724,0.0727 -0.009,0.05 0.02166,0.10176 0.07366,0.12276 3.417,1.302 7.249835,1.89686 10.749835,0.50086 2.625,-1.031 5.198412,-2.08319 7.375412,-3.99019 0.03868,-0.0341 0.07371,-0.0698 0.111957,-0.1041 -0.320423,0.89816 -0.457886,1.8423 -0.530322,2.79303 -0.198,2.625 -0.499986,5.08278 -1.041986,7.73878 -0.239,1.168 -0.604387,2.26135 -1.458387,3.10435 -0.031,0.042 -0.02039,0.10355 0.02161,0.13455 0.043,0.031 0.105329,0.0312 0.146329,-0.01 0.854,-0.844 1.417918,-1.87543 1.812918,-2.99043 1.114999,-3.177 1.166459,-6.42633 1.728459,-9.79133 0.14424,-0.87271 0.38508,-1.66208 0.78174,-2.40904 1.28572,-1.34711 2.46748,-2.73165 4.07366,-3.87233 1.803,-1.28 3.80294,-1.77939 5.81194,-2.49939 3.344,-1.197 5.42721,-4.20838 7.98921,-6.50038 4.167,-2.417 9.10306,-3.41718 13.91606,-3.33318 1.155,0.012 2.25003,-0.59343 3.39603,-0.85343 0.0415,-0.0105 0.0782,-0.0355 0.10312,-0.0668 2.77057,-0.74663 5.42502,-2.04877 8.04322,-3.26639 0.438,-0.198 0.89611,-0.29276 1.36411,-0.39676 4.636,-1.021 9.23893,-0.3016 13.37493,-2.9266 1.02879,-0.65765 1.89898,-1.4447 2.65751,-2.31672 0.0909,-0.0252 0.18431,-0.0458 0.28185,-0.0589 0.896,-0.115 1.77055,-0.0525 2.65555,-0.13552 3.51,-0.323 6.08357,-2.84354 9.22957,-4.13554 1.27315,-0.52549 2.59307,-0.79299 3.93814,-0.97029 -1.77982,1.36953 -3.08498,3.43369 -4.30445,5.37492 -1.219,1.938 -1.71927,3.9479 -2.17727,6.1979 -0.29756,1.48356 -1.24628,2.45294 -2.43261,3.09846 -6.73325,0.81714 -12.3874,5.87047 -15.90968,11.46577 -0.031,0.042 -0.0206,0.10354 0.0314,0.13454 0.042,0.032 0.10354,0.0225 0.13454,-0.0295 2.552,-3.792 6.13566,-6.52067 10.15666,-8.89567 4.167,-2.479 8.61355,-1.78184 13.17655,-0.88584 3.771,0.739 7.3855,0.15523 11.0425,-0.39577 0.073,-0.01 0.1249,-0.0724 0.1149,-0.14535 -0.012,-0.073 -0.0733,-0.12571 -0.14633,-0.12571 -5.65067,0.87418 -11.28084,-0.24712 -16.83774,-1.23644 0.19989,-0.17572 0.38642,-0.3759 0.55684,-0.60692 1.448,-1.969 1.30281,-4.41761 2.31181,-6.54261 1.4239,-3.02265 3.38071,-5.95389 6.32066,-7.6229 1.01318,-0.0905 2.03112,-0.1773 3.05427,-0.31524 4.375,-0.595 8.18858,-2.60388 12.18858,-4.28088 4.845,-2.01 9.96964,-2.90564 14.76064,-5.06164 1.88882,-0.84966 3.58013,-1.98368 5.15618,-3.30286 m 9.39506,57.24215 c -1.9526,0.75769 -3.74177,1.47501 -5.69874,2.28012 -5.406,2.219 -10.76086,3.59353 -16.66686,4.73853 -5.73711,1.12457 -11.37406,1.18914 -16.91434,1.73043 0.70207,-0.20638 1.38542,-0.40761 2.09281,-0.61478 3.97,-1.167 7.8961,-1.62543 11.8861,-2.77143 2.938,-0.845 5.65451,-1.88561 8.08251,-3.80261 3.052,-2.417 5.62588,-4.7505 8.93888,-6.8225 1.92724,-1.19433 3.94799,-1.875 6.02407,-2.40413 0.78143,-0.11692 1.55778,-0.24679 2.32721,-0.39997 M 151.04276,107.3175 c -0.43693,0.27245 -2.09022,0.90922 -2.93422,1.24222 -3.636,1.469 -7.38529,2.62578 -11.21829,3.35478 -0.052,0 -0.0945,0.0519 -0.0835,0.11392 0.012,0.053 0.0649,0.0837 0.11686,0.0737 3.917,-0.469 7.81215,-1.29144 11.50015,-2.77044 0.15229,-0.0616 0.30682,-0.13237 0.46059,-0.21017 1.0582,-0.4028 2.1145,-0.87907 3.15792,-1.34316 m 72.93093,55.96416 c -2.45581,0.29733 -4.96876,0.39878 -7.50826,0.94195 -2.552,0.552 -4.86508,1.16698 -7.22908,2.08298 -2.271,0.865 -4.11357,2.38566 -6.27057,3.41666 -0.052,0.021 -0.073,0.0825 -0.0521,0.13454 0.031,0.054 0.0935,0.0742 0.13552,0.0432 2.75,-1.375 5.26002,-3.0299 8.43802,-3.6769 1.95672,-0.39711 3.70944,-0.90906 5.6116,-1.19715 -0.73009,0.29079 -1.4431,0.65658 -2.13209,1.13528 -1.594,1.104 -3.16694,1.84397 -4.55194,3.12497 -1.396,1.292 -2.72888,2.417 -4.28088,3.562 -5.969,4.406 -13.01021,4.85428 -19.77121,6.39628 -2.56239,0.84715 -5.14383,1.63152 -7.71914,2.43065 -2.04569,0.40981 -4.07806,0.95807 -6.09576,1.74515 -0.76156,0.29644 -1.52761,0.57867 -2.29316,0.86129 -2.11023,0.68905 -4.22135,1.37333 -6.36288,1.95433 -0.54219,0.25922 -1.09506,0.48205 -1.64793,0.70415 -3.43561,1.00843 -6.91211,1.84726 -10.4287,2.4935 -2.06443,0.25767 -4.14374,0.43921 -6.21557,0.60496 -3.062,0.25 -6.03105,-0.47905 -9.09405,-0.27105 -1.48755,0.10207 -2.95443,0.23263 -4.42329,0.3781 -1.61426,-0.14663 -3.19656,0.0971 -4.73951,0.52639 -2.78537,0.33854 -5.52963,0.72385 -8.32705,0.8662 -5.302,0.271 -10.43782,-1.24978 -15.35382,-3.13578 -3.771,-1.448 -7.250061,-3.42858 -11.011061,-4.84558 -6.013495,-1.4087 -12.08456,-2.58928 -17.255125,-6.47583 -4.141335,-4.41581 -6.184117,-10.37083 -4.815132,-16.50285 0.427,-1.896 0.770864,-3.69777 1.541864,-5.43777 1.757001,-3.92426 5.15386,-6.43046 7.891985,-9.76874 1.452148,-1.44019 2.932638,-2.85128 4.482208,-4.19151 5,-3.25 9.311706,-7.18819 13.551706,-11.55219 3.259995,-3.344 6.667025,-6.17657 10.739025,-8.57257 4.552,-2.677 9.45824,-3.78122 14.12524,-5.90622 0.114,-0.062 0.16692,-0.1973 0.11392,-0.3123 -0.026,-0.057 -0.0729,-0.098 -0.12767,-0.11883 l 4e-5,-8e-5 c -0.0547,-0.0209 -0.11781,-0.0216 -0.17481,0.005 -2.198,0.896 -4.31132,1.91729 -6.61332,2.61429 -2.729,0.823 -5.36466,1.36497 -7.85466,2.90597 -4.042,2.489 -7.40579,5.26094 -10.697787,8.55194 -2.719,2.708 -5.197412,5.29196 -8.197412,7.72896 -2.386,1.948 -4.938767,3.27153 -7.136767,5.39653 -3.052,2.969 -6.073042,5.50977 -8.656042,8.99977 -0.629632,0.84276 -1.148399,1.73076 -1.583111,2.64768 -0.327737,0.61029 -0.619144,1.24542 -0.862266,1.91506 -0.698,1.928 -1.292143,3.8334 -1.636143,5.8964 -0.292,1.688 -0.21905,3.32314 -0.05205,4.97914 0.151788,1.54029 0.537035,3.00003 1.07243,4.41935 -0.03028,0.0307 -0.0457,0.0691 -0.02062,0.11196 0.169143,0.3491 0.331848,0.70538 0.49595,1.05966 0.09192,0.20536 0.189277,0.40999 0.287749,0.6138 0.711378,1.52417 1.475405,3.02366 2.637864,4.24847 3.242276,4.02525 7.849331,6.5472 12.922193,7.8802 6.78,1.793 12.917122,4.25019 19.447122,6.51119 5.604,1.938 11.38644,2.35391 17.29244,1.37491 6.448,-1.073 12.61523,-0.99994 18.94823,-0.98994 3.052,0.011 6.02087,-0.0517 9.10387,-0.78075 3.771,-0.885 7.25941,-1.65638 10.93741,-2.71938 2.92847,-0.84025 5.70863,-1.89827 8.45767,-3.02382 3.43163,-1.23526 6.84318,-2.44677 10.59565,-3.01793 5.688,-0.875 11.07353,-0.58276 16.73953,-1.43776 6.854,-1.03 13.28008,-2.61432 19.61408,-5.18832 2.04759,-0.83283 3.87642,-1.61097 5.92848,-2.3857 m -30.56196,-42.75466 c -0.0246,0.003 -0.0474,0.0168 -0.0629,0.0383 -0.043,0.04 -0.0332,0.10256 0.009,0.13356 3.428,3.667 8.3746,4.69767 13.2286,5.33367 5.396,0.708 10.60454,0.13469 15.91754,0.0717 2.885,-0.042 5.36353,1.39582 7.91653,2.53082 0.229,0.115 0.50077,0.0216 0.61577,-0.1974 0.113,-0.229 0.0296,-0.50078 -0.19838,-0.61478 -1.604,-0.708 -3.10419,-1.61461 -4.81219,-2.10361 -4.917,-1.396 -9.83307,0.0516 -14.79207,-0.25043 -3.021,-0.177 -5.89574,-0.52025 -8.94674,-1.08225 -3.25,-0.604 -6.37535,-1.63506 -8.80335,-3.83306 -0.021,-0.021 -0.0471,-0.0294 -0.0717,-0.0265 z m 13.59786,24.04129 c -1.3775,0.0104 -2.75464,0.0859 -4.12964,0.19543 -3.448,0.271 -6.70809,0.85354 -10.18809,1.61454 -5.521,1.219 -10.27995,3.52097 -15.29195,5.64597 -8.988,5.125 -19.30241,8.81212 -30.06241,6.40512 -3.333,-0.738 -6.20773,-2.02141 -9.16673,-3.59441 -2.927,-1.562 -5.39614,-3.59333 -8.76014,-4.31133 -3.021,-0.656 -5.9576,-0.49994 -8.8446,0.27106 -0.062,0.021 -0.0947,0.0727 -0.0727,0.12472 0.01,0.051 0.0619,0.0817 0.11393,0.0717 3.646,-0.708 7.58326,-0.25019 11.00026,1.27081 3.188,1.427 5.9481,3.50027 9.1461,4.91727 0.73488,0.32526 1.47866,0.61964 2.22736,0.89762 -0.0801,-0.007 -0.15932,-0.0166 -0.23963,-0.0226 -4.095,-0.292 -8.27065,-0.16703 -12.02065,1.86497 -4.021,2.188 -7.99962,3.74009 -12.40562,4.92709 -3.761,1 -7.77111,1.51025 -11.44711,0.26025 -0.053,-0.03 -0.11451,-0.01 -0.13651,0.0432 -0.03,0.05 -0.009,0.11257 0.0422,0.13357 9.49,3.688 18.82345,-2.22908 27.37545,-5.75008 2.823,-0.646 5.69739,-0.7923 8.58239,-0.5313 2.615,0.229 5.11496,0.81204 7.72896,1.09404 1.24438,0.13561 2.48251,0.12961 3.7152,0.0403 0.67317,-0.009 1.3487,-0.0423 2.02603,-0.10312 6.135,-0.553 11.99986,-2.05299 17.48886,-5.04199 4.198,-2.292 8.44795,-3.87527 12.77095,-5.73927 4.479,-1.927 9.08267,-2.44714 13.93767,-3.28014 3.667,-0.636 7.16701,-0.30218 10.74001,-0.81218 0.115,0 0.19838,-0.0944 0.19838,-0.19838 0,-0.104 -0.0834,-0.1974 -0.19838,-0.1974 -1.375,-0.151 -2.75214,-0.20581 -4.12964,-0.19543 z M 88.801792,183.83294 c 1.835826,0.46165 3.678737,0.89894 5.486875,1.40634 0.422534,0.19342 0.854815,0.39037 1.278666,0.5863 -0.462794,-0.17072 -0.927126,-0.33983 -1.39357,-0.50577 -1.042,-0.375 -2.176469,-0.41677 -3.207469,-0.77977 -0.718248,-0.25803 -1.44117,-0.48736 -2.164502,-0.7071 z M 225.85302,155.82365 c -1.05235,-0.15984 -1.94432,-0.32591 -3.02316,-0.42871 -3.188,-0.302 -6.31183,-0.41642 -9.48983,-0.63442 -4.927,-0.323 -9.69859,-0.10436 -14.70859,-1.02136 -3.656,-0.656 -6.97869,-1.73912 -10.59369,-2.02112 -4.178,-0.344 -8.32269,0.89577 -12.07269,2.69777 -0.052,0.031 -0.073,0.0945 -0.052,0.13553 0.031,0.051 0.0935,0.0721 0.13552,0.0511 3.75,-1.854 7.97978,-2.68804 12.17778,-2.13504 4.458,0.583 8.55178,2.18787 12.99978,2.58287 7.24,0.636 14.32234,0.51049 21.57234,1.34349 1.00479,0.1145 1.96813,0.0319 2.96521,0.16547 m 5.2184,-19.06688 c -0.92898,-0.60871 -2.15386,-1.50044 -2.93036,-2.33909 -1.792,-1.927 -2.97893,-4.08306 -4.33293,-6.35406 -0.292,-0.479 -0.28083,-1.05211 -0.44783,-1.58311 -0.011,-0.052 -0.0619,-0.0827 -0.1149,-0.0727 -0.066,0.011 -0.0966,0.0727 -0.0756,0.12472 1.10855,4.38054 3.7563,8.85989 7.69617,11.16039" />
  </g>

  <g
   inkscape:groupmode="layer"
   id="occipital-lobe-group"
   inkscape:label="Occipital Lobe"
   style="display:inline">
      <path
   id="occipital-lobe-fill"
   inkscape:label="occipital-lobe-fill"
   sodipodi:nodetypes="ccccccsccccccccccccccccccsccc"
   style="display:inline;fill:#a1ec96;stroke:#000000;stroke-width:0.498803;stroke-opacity:0;fill-opacity:1"
   d="m 232.01371,133.92084 c 0.83316,-3.66593 11.34354,-13.98779 11.34354,-13.98779 l 3.26371,-2.32129 10.3282,-3.45473 5.07775,-7.28857 2.42067,-12.34092 c -0.57907,-0.831939 5.17092,-3.619008 7.80509,-8.156563 0.73183,-1.260624 1.44668,-5.141848 1.58796,-6.389389 l 9.43328,8.858305 2.32698,5.148171 0.59682,4.255838 v 4.806158 l 5.76737,9.85263 1.66771,6.88655 -0.22586,5.84976 0.12538,3.15897 -1.4615,8.61611 -1.78785,5.52708 -1.68217,12.97664 -5.04645,7.20923 -2.74553,2.1303 -4.94433,2.19524 -6.78027,-0.8802 -5.95603,-1.28258 -7.75666,-1.04691 c 0.17949,-0.61969 -5.49114,0.11652 -11.82931,1.96862 -8.45366,2.47019 -18.48257,6.68713 -18.48257,6.68713 l 0.0612,-9.40012 0.87354,-7.55862" />
    
      
  <path
   id="occipital-lobe-curves"
   style="display:inline;overflow:visible;fill:#000000;fill-opacity:1"
   d="m 272.66738,80.004362 c 0,0 -0.0417,0.193308 -0.0571,0.197917 0,0 0.17572,4.448371 -0.62227,6.53449 -0.021,0.062 0.0107,0.125329 0.0727,0.146329 0.063,0.021 0.12533,-0.0097 0.14633,-0.07267 1.48055,-3.856957 2.22892,-3.270057 1.43921,-7.154877 m -48.73453,84.829279 c 1.94742,-0.38771 3.85053,-0.92476 5.67968,-1.77926 0.073,-0.021 0.11449,-0.10456 0.0825,-0.18856 -0.021,-0.073 -0.11457,-0.1135 -0.18757,-0.0825 -1.7953,0.7396 -3.63755,1.08092 -5.51313,1.308 m -0.0792,9.8133 c 5.44326,-2.05505 11.11286,-4.05588 16.49925,-6.25706 7.198,-2.177 14.96848,-3.3014 22.33248,-1.2384 4.542,0.208 9.06193,1.80175 13.59393,0.99975 0.062,0 0.1041,-0.0615 0.1041,-0.13552 -0.011,-0.062 -0.0725,-0.1041 -0.13553,-0.1041 -3.5,0.47 -6.82321,-0.57232 -10.34521,-1.18832 -3.125,-0.542 -6.01025,-1.30186 -9.08325,-1.54186 -5.739,-0.438 -11.39559,0.47852 -16.79159,2.43752 -5.41771,1.97393 -10.93469,3.95773 -16.25782,6.02335 m 0.97976,-15.97604 c 8.61659,1.15386 16.96253,3.22309 25.12231,6.08134 7.438,1.457 14.50026,4.89564 22.12526,5.06164 2.427,0.062 4.87498,-0.33314 7.12498,-1.41714 3.167,-1.531 5.3859,-4.13521 7.2389,-7.16721 0.95175,-1.55329 1.57575,-3.19135 1.99068,-4.90549 1.10769,-3.78426 1.38788,-7.91809 1.63516,-11.7928 0.028,-0.4581 0.0566,-0.92983 0.13945,-1.39062 1.57062,-3.65475 2.55052,-7.58972 3.014,-11.63862 0.562,-4.958 0.71887,-9.83349 -0.97913,-14.60449 -1.365,-3.812 -3.84535,-6.85354 -5.62535,-10.43754 -0.50439,-1.0139 -0.74857,-2.08074 -0.88583,-3.16917 0.35363,-4.752408 -0.61512,-9.517788 -3.73583,-13.635175 -1.979,-2.615 -4.47893,-4.187294 -7.07293,-6.176294 -0.719,-0.542 -1.54563,-1.19619 -2.2361,-1.683727 0,0 -0.38744,0.35671 -0.26784,0.596264 0.20914,0.418885 1.08389,1.002165 1.88926,1.763033 2.583,2.073 5.20821,3.583229 7.16721,6.344229 1.844,2.614 2.95765,5.416893 3.19765,8.499893 0.417,5.322997 -0.69787,10.572427 -2.36387,15.594427 -0.031,0.083 0.01,0.1774 0.0825,0.1974 0.083,0.031 0.16738,-0.0105 0.19838,-0.0835 1.26521,-2.72255 2.26825,-5.67185 2.79892,-8.67863 0.20579,0.68477 0.50894,1.35792 0.94967,2.01326 3.239,4.781 5.87538,9.43808 6.28138,15.01108 0.396,5.458 -0.46951,10.8438 -1.99951,16.1768 -0.917,3.167 -2.19834,5.91689 -4.14634,8.71889 -2.562,3.688 -5.18811,7.094 -9.36511,8.604 -2.92346,1.05978 -5.98595,1.43098 -9.06458,1.62828 2.60499,-1.36804 4.7177,-3.2481 7.21042,-5.0361 1.115,-0.802 1.75995,-1.92692 2.68795,-2.85392 0.062,-0.062 0.062,-0.17763 0,-0.23963 -0.072,-0.062 -0.17665,-0.062 -0.23865,0 -1.062,0.927 -1.80328,2.11416 -3.05328,2.89616 -2.489,1.552 -4.62483,3.18826 -7.18783,4.47926 -1.208,0.614 -2.44763,1.02095 -3.80163,1.20795 -3.688,0.521 -7.40634,0.70825 -10.88634,-0.56175 -0.052,-0.01 -0.10373,0.01 -0.12473,0.0619 -0.019,0.052 0.0128,0.11454 0.0648,0.13454 2.489,0.844 5.02053,1.78129 7.69753,1.57329 1.8727,-0.15228 3.73944,-0.22191 5.53205,-0.76897 5.3934,-0.18172 11.05068,-0.20269 15.4648,-3.91555 3.24351,-2.73742 5.75531,-5.99379 7.63566,-9.58017 -0.20701,3.18321 -0.55366,6.25655 -1.15492,9.51438 -0.002,0.008 -0.003,0.0163 -0.005,0.0246 -0.008,0.0207 -0.0204,0.0385 -0.0246,0.0609 -1.292,5.208 -4.43777,10.2289 -9.43777,12.4999 -4.031,1.822 -8.4171,1.47854 -12.7081,0.35354 -3.344,-0.865 -6.36526,-1.90559 -9.74026,-2.70759 -7.583,-1.812 -14.19783,-4.56156 -21.87483,-5.83256 -3.10085,-0.5094 -6.16535,-1.07748 -9.16693,-1.5334 m 38.06112,-61.998164 c -0.0907,1.522509 -0.26826,5.707002 -0.88516,8.696144 -1.155,2.583 -2.10327,5.12463 -3.82127,7.58263 -1.833,2.625 -4.22948,4.43807 -7.04248,5.53107 -3.49,1.365 -7.38734,2.08309 -9.84534,5.14609 -0.042,0.042 -0.042,0.11515 0,0.15615 0.042,0.052 0.11395,0.052 0.16695,0 1.24,-1.458 2.78115,-2.6042 4.59515,-3.1672 2.385,-0.729 4.81248,-1.06222 7.04248,-2.12522 0.0451,-0.0212 0.0888,-0.0441 0.13357,-0.0658 1.02134,-0.16054 2.06008,-0.19769 3.12694,0.005 0.39924,0.0752 0.75463,0.25056 1.03904,0.51756 0.0116,0.0289 0.0212,0.0574 0.0334,0.0864 0.719,1.729 2.15507,2.94799 3.01007,4.60399 1.698,3.271 1.78088,7.14683 0.49988,10.53083 -0.021,0.062 0.0107,0.13617 0.0727,0.15517 0.062,0.021 0.12533,-0.01 0.14633,-0.0727 1.229,-3.312 1.90592,-7.09435 0.33292,-10.44735 -0.41241,-0.87682 -0.97067,-1.64111 -1.534,-2.39922 -0.49392,-1.1076 -0.98695,-2.20476 -1.82372,-2.959 -0.48973,-1.34048 -0.34557,-2.65435 0.0854,-3.93519 0.64547,-0.78284 1.21841,-1.63829 1.7098,-2.56126 1.125,-2.114 2.27115,-4.11373 2.89615,-6.42673 0.531,-1.917 0.9378,-3.812672 1.0518,-5.771672 0.0699,-1.263591 0.008,-2.18131 -0.23408,-3.381844 m -6.44305,19.255126 c -0.17603,0.69818 -0.23639,1.41444 -0.12472,2.1537 -0.15433,-0.063 -0.31738,-0.11814 -0.49006,-0.16302 -0.55832,-0.14458 -1.10661,-0.18673 -1.64891,-0.15812 0.81428,-0.53546 1.57105,-1.14774 2.26369,-1.83256 z M 230.76184,138.473 c 0.53826,0.31429 0.82408,0.47052 1.42254,0.70082 2.917,1.125 5.80134,2.05204 8.96834,2.57304 3.854,0.625 7.53098,0.18798 11.34498,0.60398 3.021,0.323 5.94732,1.09426 8.96932,0.69826 4.427,-0.594 8.44792,-2.65575 11.45792,-6.04175 2.604,-2.938 4.96882,-5.82373 6.53082,-9.38573 1.697,-3.865 3.22914,-7.78115 3.93814,-11.93815 0.021,-0.062 -0.0205,-0.13535 -0.0825,-0.14535 -0.073,-0.021 -0.13515,0.0205 -0.15615,0.0825 -0.68685,4.07483 -2.65937,7.65576 -4.41051,11.37836 0.67597,-3.75173 -0.10803,-7.63479 -2.38547,-11.0199 -0.458,-0.677 -0.54236,-1.52122 -0.58336,-2.34422 -0.01,-0.062 -0.0619,-0.0943 -0.11392,-0.0943 l -2e-5,5e-5 c -0.051,0.008 -0.0933,0.0609 -0.0933,0.11294 0.031,1.989 0.98997,3.68885 1.64597,5.54285 0.708,2.021 0.93798,4.1552 0.82298,6.2912 -0.0933,1.62568 -0.68776,3.14426 -1.02824,4.71888 -1.41495,2.28747 -3.09986,4.36365 -4.99976,6.3737 -3.146,3.344 -7.47902,5.60374 -12.00002,5.60374 -3.26,0 -6.47829,-0.79209 -9.73829,-0.92709 -2.99,-0.115 -5.9061,0.01 -8.9271,-0.4272 -3.062,-0.448 -5.82345,-1.44734 -8.68845,-2.44734 -0.73549,-0.2551 -0.98844,-0.51474 -1.62909,-0.93453"
   sodipodi:nodetypes="ccccccccccccccccccccccccccccccccccccsccccccccccccccscccccccccccccccccccccccccccccccccccccccccccccccccccccccccccccccsscccccscccc" /></g>

  <g
   inkscape:groupmode="layer"
   id="parietal-lobe-group"
   inkscape:label="Parietal Lobe"
   style="display:inline">
      
      <path
   id="parietal-lobe-fill"
   inkscape:label="parietal-lobe-fill"
   sodipodi:nodetypes="cccccccccccsssscscssscsccccccccccccc"
   style="display:inline;fill:#ffaaaa;stroke:#000000;stroke-width:0.505502;stroke-opacity:0"
   d="m 166.04335,5.1892961 4.38366,10.9590689 -1.46122,7.793118 -3.4095,8.036652 -1.70473,10.228465 -2.43536,5.844837 -4.8707,4.627163 -4.87071,5.601301 -3.65301,8.036654 -0.97414,6.818973 -1.21767,4.627161 c -0.82532,2.344927 -2.78134,5.004204 -3.87255,7.751718 -1.04307,2.626354 -1.23415,5.333314 -1.51477,7.923423 -0.2286,2.109974 0.006,2.383663 0.53575,4.005125 0.65917,2.015695 4.28757,5.111645 6.47007,7.361885 1.0995,1.13365 0.36186,2.40906 1.66686,2.50254 0.96181,0.54254 4.16137,-0.27421 4.70479,-0.10192 0.75166,0.23817 89.23909,12.47782 89.18039,12.52214 0,0 12.08583,-5.22984 13.30693,-6.53561 0.64773,-0.69264 1.98217,-1.25994 2.80977,-2.33755 1.26818,-1.65126 2.02033,-3.91098 2.56006,-5.04294 2.87849,-6.036938 2.98562,-11.893994 2.98562,-11.893994 0,0 5.47837,-3.73335 6.76582,-6.503267 1.9973,-4.297149 1.49289,-8.05008 1.08293,-12.338369 l -4.18362,-10.220424 -8.03664,-11.446141 -8.76727,-7.062508 -6.57543,-10.959072 -7.54961,-6.575444 -14.12501,-4.870696 -17.04745,-8.767257 -8.28017,-3.653024 -6.08839,-0.243534 -13.15087,-6.5754428 -5.60131,-1.4612094 z" /><path
   id="parietal-lobe-curves"
   style="display:inline;overflow:visible;fill:#000000;fill-opacity:1"
   inkscape:label="parietal-lobe-curves"
   d="m 272.08466,75.301453 c 0.009,0.03645 0.017,0.07292 0.0254,0.109417 m 0.90633,-0.311685 c -0.006,-0.03145 -0.0129,-0.0629 -0.0194,-0.09433 m 0.6929,5.018302 c -0.0632,-0.305088 -0.82487,-5.627944 -0.89901,-5.931871 -0.98551,-4.04004 -2.91854,-7.969136 -5.2821,-11.562753 -2.198,-3.344 -4.32305,-6.154415 -6.79205,-9.238415 -2.50489,-3.123565 -5.88051,-4.766186 -8.878,-7.249706 -1.46352,-5.600561 -4.8607,-10.008568 -9.17654,-13.710803 -3.604,-3.073 -7.51079,-5.437584 -11.95779,-6.927584 -1.875,-0.625 -3.75045,-0.779957 -5.72945,-1.207957 -0.312,-0.072 -0.58243,-0.219154 -0.85343,-0.375154 -0.0734,-0.04378 -0.16241,-0.03794 -0.23079,0.0039 -4.77937,-2.965565 -9.70769,-5.257187 -14.67422,-8.583369 -2.781,-1.863 -5.54275,-3.000132 -8.78175,-3.719132 -2.792,-0.625 -5.42679,-0.311971 -8.17679,-0.987971 -3.323,-0.8120006 -5.66704,-3.1988034 -8.65604,-4.6688034 -3.058,-1.4966875 -6.46495,-2.5894352 -9.83257,-2.5268888 l -8e-5,2.42e-5 c -1.53074,0.02843 -3.0535,0.2955235 -4.53131,0.872086 -1.114,0.427 -2.30226,1.3020573 -3.43826,0.4900573 -0.177,-0.073 -0.37501,0.010559 -0.43801,0.1885592 -0.072,0.177 0.0116,0.3750071 0.18856,0.4380071 l 0.0815,-0.2131111 c 0.938,1.428 2.68829,0.4993262 3.87529,-0.072674 2.49,-1.198 5.19791,-0.780957 7.89591,-0.385957 5.615,0.845 9.36467,5.1366128 14.59467,6.7616125 2.438,0.75 4.92696,0.396033 7.50996,0.875033 3.323,0.614 6.15595,1.72905 8.98995,3.61405 5.438,3.614 10.79226,6.082548 16.04226,9.395548 2.802,2.781 5.12515,6.011071 7.28015,9.312071 0.031,0.053 0.0953,0.07323 0.14633,0.04223 0.052,-0.03 0.0722,-0.09417 0.0413,-0.155169 -2.03369,-3.180213 -3.7154,-6.65661 -6.34816,-9.406351 10.02217,1.886398 18.42606,7.681346 23.38919,16.445892 0.41659,0.737931 0.79472,1.498418 1.1176,2.274495 -0.008,0.001 -0.0152,-0.004 -0.0226,-9.82e-4 -0.064,0.019 -0.0846,0.07058 -0.0746,0.132581 0.14072,0.753965 0.42346,1.409285 0.80236,1.996566 0.20351,0.849401 0.31747,1.71568 0.30248,2.597598 -0.031,1.614 -0.52051,3.188545 -0.73951,4.792545 -0.021,0.146 0.0728,0.291319 0.22882,0.311319 0.146,0.031 0.29231,-0.073 0.31231,-0.219003 0.33336,-2.033003 1.25297,-3.973084 1.10287,-6.068266 0.98799,0.915719 2.20325,1.667014 3.37737,2.434574 4.583,3.01 6.96886,7.238835 10.14586,11.571835 3.04467,4.157276 5.1231,8.52666 6.32093,13.271983 0.056,0.221725 0.63494,5.210608 0.68708,5.433991 m -15.58448,1.378523 c -1.312,-2.802 -3.78028,-4.500394 -6.39628,-6.280394 -0.864,-0.595 -1.54214,-1.220265 -2.23914,-1.958265 -4.688,-4.989 -5.82241,-12.072531 -10.93741,-16.520531 -3.979,-2.729 -8.11502,-5.020741 -11.78102,-8.343741 -3.896,-3.542 -7.47874,-6.677505 -11.90574,-9.781505 -1.67092,-1.163842 -3.38205,-1.938452 -5.22368,-2.455198 -4.61991,-2.687955 -7.94703,-7.097198 -12.25438,-10.587791 -1.97,-1.594 -4.22985,-2.19818 -6.36485,-3.55218 -0.688,-0.438 -1.28059,-0.948189 -1.88559,-1.469189 -0.021,-0.0155 -0.0467,-0.02286 -0.0727,-0.02161 l -1e-5,-3e-6 c -0.026,0.0013 -0.0527,0.01191 -0.0737,0.03241 -0.03,0.041 -0.0184,0.103348 0.0226,0.145348 0.604,0.521 1.16729,1.042649 1.79229,1.553649 2.25,1.833 4.9041,2.635412 7.0091,4.635412 2.542,2.396 4.60423,4.926982 7.38523,7.124982 0.68909,0.542051 1.36932,1.095229 2.06138,1.618466 -3.50814,-0.570716 -6.88621,-0.464629 -10.36387,-0.762093 -3.886,-0.333 -7.61575,-1.521398 -11.52175,-1.293398 -2.917,0.178 -5.82116,0.979405 -8.32116,2.553405 -0.053,0.03 -0.0622,0.09433 -0.0422,0.146329 0.03,0.052 0.0933,0.06125 0.14535,0.04125 v -0.01375 h 9.8e-4 c 3.656,-1.823 7.78186,-2.311509 11.84486,-1.780509 2.542,0.333 4.93753,0.989383 7.47853,1.239383 3.25,0.323 6.43803,0.333584 9.69803,0.625584 1.08266,0.09729 2.1107,0.309911 3.10042,0.602015 0.85254,0.482764 1.75404,0.85867 2.73705,1.059663 3.70242,1.785661 6.86282,4.695069 10.06729,7.472638 2.72,2.344 5.16725,4.510383 8.04225,6.719383 3.07351,2.357036 6.51227,3.690338 9.11762,6.461097 -0.60049,-0.468393 -1.2449,-0.892535 -1.93863,-1.262954 -5.708,-3.062 -13.20777,-2.635215 -17.21977,-8.208215 -0.03,-0.042 -0.0835,-0.06244 -0.13651,-0.03044 -0.041,0.029 -0.0614,0.09238 -0.0304,0.143383 3.053,4.917 9.05302,5.802237 14.13702,7.604237 1.708,0.604 3.25994,1.385996 4.77094,2.520996 1.95473,1.475463 3.16429,3.430677 4.40364,5.378846 1.29141,2.496014 2.45663,5.021342 4.21901,7.487369 2.188,3.042 5.38569,4.279125 7.85369,6.843125 0.78,0.812 1.44422,0.823882 1.90523,2.698753 M 205.40499,53.02102 c -0.043,0.0039 -0.0849,0.02439 -0.11588,0.06089 -4.354,4.021 -9.97906,7.156581 -16.05306,6.708581 -3.53,-0.25 -6.6037,-2.240524 -10.1547,-2.656524 -8.49,-1.01 -15.50063,7.000222 -16.24063,14.948222 -0.25,2.667 0.89617,5.052036 2.29217,7.396036 1.26675,2.124084 0.62083,4.693781 -0.79549,6.537699 -2.7e-4,3.61e-4 -7e-4,6.21e-4 -9.8e-4,9.82e-4 -1.54198,1.661517 -3.12817,3.191441 -4.55881,5.10681 -0.646,0.854 -0.46822,1.926989 -0.20722,2.904989 0.012,0.053 0.0727,0.09548 0.12473,0.08348 0.053,-0.01 0.0945,-0.07172 0.0825,-0.124724 h -0.01 c -0.448,-1.635 0.35439,-3.094452 1.67739,-4.030452 2.417,-1.72 3.98994,-3.791896 5.81194,-5.978896 0.688,-0.833 1.45777,-1.541968 2.47877,-1.864968 3.803,-1.197 8.0425,-0.634928 11.2615,-3.291928 0.062,-0.03 0.0823,-0.113774 0.0412,-0.176774 -0.031,-0.062 -0.11396,-0.08323 -0.16696,-0.04223 -1.386,0.812 -2.88606,1.509408 -4.49006,1.676408 -2.01,0.22 -3.95772,0.104534 -5.98872,0.573534 -1.625,0.375 -2.88548,1.30167 -3.86448,2.59367 -0.16631,0.219565 -0.33502,0.433118 -0.50479,0.643262 0.38365,-0.936494 0.56915,-1.94847 0.49399,-2.924631 -0.146,-1.854 -1.45724,-3.31219 -2.12424,-5.03119 -2.406,-6.177 1.69728,-12.645953 6.99928,-16.332953 2.375,-1.656 4.94851,-2.229164 7.69851,-1.854164 3.27263,0.450422 6.16446,2.183361 9.32582,2.685985 2.56861,1.113248 4.94069,2.457465 7.42256,4.177763 1.052,0.739 2.18825,1.113811 3.43825,1.270811 2,0.25 3.90658,-0.249674 5.88658,-0.07267 1.78071,0.166782 3.35696,0.907545 5.03512,1.498652 1.06404,0.576952 2.22797,0.990168 3.10926,1.835505 4.875,4.688 4.45775,11.739147 3.08275,18.021147 -0.844,3.832 -2.81109,6.885817 -5.53009,9.654817 -1.792,1.833 -2.41763,4.374901 -4.23963,6.197901 -3.031,3.042 -6.92806,4.6766 -10.57306,6.7076 -0.052,0.031 -0.0722,0.0943 -0.0413,0.14633 0.031,0.053 0.0934,0.0732 0.14535,0.0432 4.25,-2.386 9.09545,-3.82339 12.25045,-7.97939 0.48036,-0.63884 0.89204,-1.29214 1.29242,-1.9455 0.68017,-0.678777 1.46658,-1.259051 2.33243,-1.763814 2.115,-1.229 4.21973,-2.427523 6.64573,-2.656523 0.0733,-0.0032 0.14159,-0.0272 0.20133,-0.06384 2.13642,0.827698 4.43187,0.86613 6.69483,0.701205 0.095,-0.012 0.15633,-0.08374 0.14633,-0.178739 0,-0.094 -0.0838,-0.154186 -0.17776,-0.154186 -2.739,-0.053 -5.48816,-0.417573 -7.93716,-1.886573 -0.396,-0.239 -0.75059,-0.593448 -0.84459,-1.071448 -0.25568,-1.325677 -0.13952,-2.598338 0.0285,-3.867427 0.7206,-2.250412 1.11019,-4.631114 1.28358,-6.966867 0.365,-4.887 -0.17662,-10.311917 -4.40462,-13.594917 -0.29782,-0.23056 -0.61434,-0.417473 -0.93789,-0.586301 2.00349,0.140609 3.96543,-0.530081 5.75007,-1.696051 2.521,-1.646 3.99906,-4.155225 4.65506,-6.947225 0.031,-0.095 -0.009,-0.187986 -0.10312,-0.219986 -0.094,-0.03 -0.188,0.0121 -0.219,0.1041 -1.24,4.646 -6.01075,8.646663 -11.08375,7.635663 -1.989,-0.406 -3.55169,-1.39667 -5.55169,-1.77167 -2.438,-0.458 -4.67693,0.302505 -7.07293,-0.0825 -2.125,-0.345 -3.77069,-1.448358 -5.55169,-2.720358 -1.0763,-0.767325 -2.22124,-1.247176 -3.3921,-1.634179 0.0755,-5.69e-4 0.1499,0.0044 0.22588,0.002 5.844,-0.177 11.35344,-3.029709 15.15544,-7.468709 0.062,-0.062 0.0522,-0.176646 -0.0108,-0.238646 -0.036,-0.031 -0.0798,-0.04414 -0.12276,-0.04026 z m -53.37015,54.79445 c 0.74312,-0.33052 1.48348,-0.6737 2.22247,-1.02541 5.136,-2.438 10.6356,-3.36502 15.9686,-5.26002 3.031,-1.083 5.74982,-2.719525 8.83282,-3.697525 4.417,-1.406 8.74974,-2.720333 12.34374,-5.845333 1.10506,-0.956387 1.80153,-2.209385 2.08398,-3.540394 0.11497,-0.125609 0.23852,-0.244276 0.37417,-0.354531 0.79667,-0.649982 1.94795,-0.563178 2.98945,-0.311319 0.9438,0.503354 1.9489,0.902533 3.05328,1.14314 2.073,0.458 4.06114,0.09399 6.02014,-0.438007 0.094,-0.021 0.15653,-0.103416 0.13553,-0.196416 -0.021,-0.095 -0.1152,-0.146706 -0.2082,-0.125706 -2.57991,0.739653 -5.33042,0.600726 -7.68673,-0.680581 -0.0395,-0.06984 -0.10004,-0.127729 -0.17776,-0.162043 -0.0834,-0.0315 -0.16997,-0.06211 -0.2573,-0.09133 -0.2784,-0.172051 -0.55127,-0.359339 -0.81611,-0.565677 -0.345,-0.261 -0.66718,-0.553488 -1.03118,-0.740488 -1.06829,-0.520898 -2.17838,-1.181097 -3.06507,-2.006387 -0.0779,-0.141213 -0.15728,-0.281924 -0.2465,-0.418365 -0.0638,-0.175899 -0.23897,-0.287746 -0.42033,-0.289714 -0.79628,-0.980424 -1.25285,-2.15748 -1.03904,-3.565928 0,-0.062 -0.0521,-0.1041 -0.1041,-0.1041 l 4e-5,-2.23e-4 c -0.052,0 -0.1041,0.0421 -0.1041,0.1041 -0.09,1.5066 -0.0379,3.175456 0.90351,4.36043 0.94484,1.708001 1.38355,3.761317 0.29462,5.505534 -3.364,5.365 -9.84344,5.958115 -15.15544,8.104115 -3.5,1.417 -6.66771,3.228958 -10.42771,4.166958 -4.438,1.094 -8.58305,2.27096 -12.65605,4.16696 -0.94112,0.43928 -1.91023,0.94798 -2.84201,1.4021 m 0.0371,-0.052 c -0.12993,0.0633 -0.25986,0.1266 -0.38981,0.18977 m 1.13734,-0.0164 -0.86133,-1.23482 c 0,-0.104 -0.0303,-0.19689 -0.0943,-0.27989 l -0.16695,-0.2082 c -0.49,-0.792 -1.28014,-1.24969 -2.02014,-1.77069 -0.095,-0.083 -0.2293,-0.0832 -0.3123,0.01 -0.083,0.095 -0.0732,0.2293 0.0108,0.3123 0.583,0.542 1.15642,1.11437 1.51142,1.84337 l 0.65119,0.82999 0.50362,0.38091 m 89.8076,-14.189705 c 0.0126,-0.144348 0.0338,-0.251733 0.0482,-0.396231 0.396,-4.125 -1.25979,-8.166936 -4.39579,-10.853936 -0.021,-0.021 -0.0467,-0.0343 -0.0727,-0.0383 l 5e-5,-3e-6 c -0.026,-0.004 -0.0517,0.0017 -0.0727,0.01768 -0.041,0.042 -0.0418,0.10533 -0.0108,0.14633 3.18152,2.97194 3.84527,7.453084 3.6737,11.660859 m -45.40712,-6.850639 c 0.078,0.03883 0.15874,0.07428 0.24061,0.106064 -0.0888,0.0181 -0.17617,0.04103 -0.26221,0.0658 l 0.0147,-0.08544 c 0.008,-0.03005 0.009,-0.05899 0.007,-0.08642 z m 21.48003,4.299541 c -0.0841,0.640614 -0.12437,1.286095 -0.0786,1.942552 0.052,0.76 0.57238,1.375294 1.23938,1.792294 0.12295,0.07717 0.2468,0.15052 0.37123,0.220967 -2.5055,0.544241 -4.96588,1.702188 -6.88536,3.416653 0.23388,-0.369684 0.47375,-0.736641 0.73263,-1.096 2.11409,-1.699335 3.59377,-3.875496 4.62068,-6.276466 z m 48.64753,2.442164 c -0.47826,-2.371832 -1.54528,-4.972054 -2.76825,-7.157076 -0.833,-1.479 -2.42785,-2.042204 -3.62485,-3.167204 -0.823,-0.771 -1.22937,-1.823046 -2.06237,-2.573046 -0.0105,-0.026 -0.0312,-0.04403 -0.056,-0.05303 l 4e-5,-5.3e-5 c -0.0248,-0.009 -0.0531,-0.009 -0.0796,9.82e-4 -0.064,0.022 -0.084,0.09531 -0.053,0.147312 0.229,2.75 2.95799,3.811971 4.60399,5.645971 1.365,1.51 1.96872,3.478739 2.64572,5.384739 0.1951,0.555971 0.4892,1.514619 0.59325,2.073557 m -7.81435,-12.061296 c 0.0431,0.175319 0.0749,0.36604 0.0965,0.569956 0.20922,1.976769 -0.53872,5.193455 -1.19049,7.638259 -0.042,0.177 0.0832,0.353975 0.26025,0.384975 0.188,0.031 0.35377,-0.08305 0.39577,-0.271054 1.188,-2.739 1.84429,-5.708093 1.35429,-8.708093 m -17.0366,12.261453 c -0.0233,0.570666 -0.047,1.12888 -0.0968,1.685043 0.604,4.750005 5.10448,7.906305 9.34448,9.354305 0.083,0.03 0.1664,-0.0211 0.1974,-0.1041 0.031,-0.083 -0.009,-0.16738 -0.0933,-0.19838 -3.427,-1.125 -6.13571,-3.75917 -7.90671,-6.895179 -0.7329,-1.304043 -0.75636,-2.869445 -0.62241,-4.400359 m -25.36614,22.159928 c 0.95222,-0.79701 1.86236,-1.66162 2.74857,-2.57193 1.637,-1.667 2.86574,-3.51047 4.56274,-5.12547 0.386,-0.363 0.88609,-0.52082 1.36509,-0.61282 6.208,-1.115 12.98873,-3.03115 15.46873,-9.198155 0.604,-1.51 0.88531,-3.145563 0.96931,-4.791563 0.01,-0.094 -0.0425,-0.167756 -0.13553,-0.177756 l 3e-5,2.2e-4 c -0.083,-0.011 -0.16677,0.04251 -0.17677,0.136509 -0.115,2.177 -1.14637,4.042025 -2.28137,5.917025 -3.021,5.021 -8.66682,6.08327 -14.09382,7.21927 -1.083,0.22 -1.95754,0.79139 -2.65554,1.67739 -2.16282,2.78087 -4.46643,5.26627 -7.10679,7.33901" />
  </g><g
   inkscape:groupmode="layer"
   id="frontal-lobe-group"
   inkscape:label="Frontal Lobe"
   style="display:inline;overflow:visible">
      <path
   id="frontal-lobe-fill"
   style="display:inline;overflow:visible;fill:#eeffaa;stroke:#000000;stroke-width:0.502104;stroke-opacity:0"
   inkscape:label="Frontal-Lobe-Fill"
   sodipodi:nodetypes="ccccccccccccccccccccccccccccccccc"
   d="M 25.00412,36.61715 41.253644,23.788576 63.14774,12.499432 74.636935,5.1404282 98.7281,3.6149349 116.172,0.45358239 l 14.23551,1.10337841 17.4023,2.1365604 15.0587,0.2535275 8.03925,7.0129533 0.40093,12.204175 -6.38332,19.989413 -3.93838,5.950035 -8.40714,7.531902 -5.10561,21.033061 -5.07619,9.268146 -0.92604,9.208838 4.62866,6.956808 7.87337,3.3022 -45.15657,14.53906 -35.235823,31.13066 -8.232188,-1.13744 -12.409899,-6.41258 -23.317157,-8.52845 -9.61866,-4.33228 -7.999245,-8.66734 L 5.3760386,112.77039 1.5705932,99.391623 0.2181951,86.906332 3.4521143,73.905526 6.8709728,61.931134 14.741259,51.669338 Z" />
    
      <path
   id="frontal-lobe-curves"
   style="display:inline;overflow:visible;fill:#000000;fill-opacity:1"
   d="m 116.34714,0.00447652 c -1.66138,0.02487674 -3.32987,0.17147698 -5.04887,0.49496773 -4.042,0.76000055 -7.70834,1.72868055 -11.708342,2.15468095 -4.615,0.4889999 -9.115264,0.4475271 -13.740265,0.9575269 -4.801999,0.5419993 -9.374334,1.6462303 -13.791333,3.6042293 -2.962962,1.313834 -5.704653,3.0026136 -8.137505,5.0361006 -0.05663,-0.01254 -0.116034,-0.0044 -0.164989,0.02848 -1.978999,1.229 -4.1139,2.072469 -6.1979,3.207469 -6.792,3.708001 -13.114606,6.82348 -19.749605,11.26248 -9.301001,6.216 -16.718827,13.267764 -22.093828,22.809763 -0.385519,0.69008 -0.64958,1.401432 -0.848516,2.123255 -0.08181,0.01729 -0.160911,0.05391 -0.213111,0.124724 -4.417001,5.760001 -9.2603538,11.458278 -10.4473544,19.000279 -0.063266,0.394102 -0.099942,0.780925 -0.1217778,1.165728 -0.021171,-0.03524 -0.047648,-0.07169 -0.087405,-0.07169 -0.051996,0.01197 -0.093298,0.06389 -0.093298,0.115885 0.1149956,0.938001 0.041563,1.905817 -0.2504301,2.749821 -2.1669997,6.323006 -4.21895013,12.624831 -3.50994973,19.353827 0.168987,1.614955 0.66004275,3.07422 1.37196413,4.395785 0.1317004,0.506182 0.2505145,1.013056 0.2946237,1.531062 0.1770068,2.26099 0.3842783,4.39572 0.9162795,6.64572 0.9999994,4.303 2.5945196,7.97048 5.1775196,11.64648 0.8688938,1.22996 1.8727403,2.24887 2.9815911,3.10042 1.329714,1.29555 2.380416,2.80165 3.517806,4.43114 2.770999,3.96901 6.187236,6.90563 10.344236,9.06262 0.337096,0.17503 0.682221,0.30905 1.026273,0.44685 0.102148,0.0631 0.191651,0.13796 0.296588,0.19838 2.708001,1.55199 5.781042,1.46817 8.656042,2.45716 3.5,1.21902 6.823285,2.57219 10.177283,4.15518 4.198001,1.979 8.562128,3.35419 12.54213,5.6882 4.457999,1.66699 8.490111,4.16699 13.36511,5.04199 1.417001,0.25 2.79163,-0.11383 4.020631,-0.78075 0.172389,-0.0859 0.224546,-0.26986 0.206236,-0.45078 1.758805,-1.62841 12.860344,-10.98494 12.884875,-12.24259 6.709986,-2.43555 10.60081,-9.29608 16.209211,-14.05551 1.104,-0.94802 2.2609,-1.58295 3.4579,-2.46895 0.26,-0.18795 0.59421,-0.21938 0.86521,-0.41738 1.40195,-1.03184 2.88542,-1.63798 4.45766,-2.12326 0.53954,-0.0964 1.07584,-0.22884 1.60471,-0.40658 0.0895,-0.008 0.16769,-0.0472 0.23669,-0.0982 1.96247,-0.4812 3.90775,-0.89059 5.71962,-1.96612 3.406,-2.031 6.92759,-3.14594 10.70859,-3.72895 7.531,-2.30198 15.36465,-3.28084 22.54166,-6.96883 0.45979,-0.23328 1.04889,-0.35319 1.54382,-0.58139 0.23902,-0.0207 0.47439,-0.0209 0.71692,-0.0638 0.18795,-0.042 0.31205,-0.21862 0.27105,-0.40462 -0.031,-0.18795 -0.21859,-0.30303 -0.40559,-0.27105 -6.083,-0.20798 -12.35389,-4.55182 -13.54189,-10.749833 0.333,-3.447984 0.59347,-6.875235 1.99951,-10.125232 0.48693,-1.121753 1.07357,-2.180467 1.64302,-3.244789 0.0677,-0.04067 0.13538,-0.08488 0.17187,-0.162043 2.67699,-3.792002 3.45868,-8.333099 4.07268,-12.927103 0.47661,-3.470799 1.22652,-7.103334 3.17408,-10.006402 0.13633,-0.06844 0.23422,-0.204579 0.25043,-0.363369 0.42337,-0.585784 0.88094,-1.150467 1.42008,-1.661677 3.61401,-2.374999 6.04153,-5.832694 8.73854,-9.332695 1.65598,-2.135001 2.61515,-4.552212 2.89615,-7.167212 0.0378,-0.367541 0.0459,-0.734013 0.057,-1.10091 0.0718,0.0389 0.14976,0.07109 0.2357,0.05794 0.21901,-0.042 0.36412,-0.237846 0.32212,-0.446846 -0.489,-3.104 1.16749,-5.906044 2.4385,-8.656043 1.448,-3.115001 2.44749,-6.354079 2.60349,-9.750079 0.15508,-3.646001 -0.20795,-7.364963 -1.86496,-10.6879637 -3.562,-7.1970006 -12.7075,-6.7597197 -19.64551,-6.2077203 -2.822,0.2200005 -5.34418,-1.1356163 -8.15518,-1.5006164 -3.521,-0.4470003 -6.83271,-0.4466194 -10.42772,0.1983799 -0.0584,0.010452 -0.11193,0.028204 -0.16989,0.039283 -0.1269,-0.1712676 -0.33529,-0.263589 -0.54015,-0.1748101 -0.76,0.156007 -1.50976,-1.359e-4 -2.25976,-0.1561505 -1.875,-0.3850003 -3.54235,-0.719788 -5.40635,-1.05278851 -0.864,-0.15600699 -1.66717,-0.39527263 -2.51117,-0.47827239 -1.6875,-0.16100515 -3.34134,-0.25762942 -5.00271,-0.23275268 z m 0.45667,0.87601432 c 1.82537,-0.0104524 3.64565,0.15881836 5.52615,0.50282436 2.292,0.4169999 4.40457,0.6670057 6.65457,1.2600071 0.21173,0.056424 0.43458,0.080717 0.6521,0.1266882 -2.98644,1.0491884 -5.58684,2.7045179 -8.80434,3.4461146 -0.417,0.093996 -0.82297,0.291571 -1.26197,0.1875771 -0.052,0 -0.0943,0.053112 -0.0943,0.1041003 0,0.051008 0.0423,0.1041004 0.0933,0.1041004 0.47,0.072996 0.88668,-0.1132092 1.33268,-0.2082007 5.281,-1.2080005 9.72918,-4.0106528 15.11518,-4.2386522 4.073,-0.1779951 8.07254,0.571756 11.91654,1.8217562 4.81201,0.5949988 9.62478,-0.8747453 14.47879,0.4792545 2.489,0.6880005 4.82211,1.7594979 6.40512,3.8634981 2.55299,3.3960002 2.80337,7.6142442 2.72036,11.6042432 -0.095,4.854 -2.26089,9.239181 -4.28089,13.635183 -0.19966,0.432412 -0.36119,0.873895 -0.49202,1.321878 0.0133,-0.262859 0.0151,-0.525366 0.0442,-0.788609 0.0521,-0.531 0.062,-1.073519 0.219,-1.61552 0.095,-0.322001 0.0723,-0.687379 -0.01,-1.02038 -0.74001,-2.99 -1.87536,-5.865046 -1.24037,-8.875046 0,-0.06199 -0.0412,-0.1039 -0.0933,-0.114904 -0.0521,-0.01102 -0.10487,0.03146 -0.11589,0.08348 -0.604,2.969 -0.10338,6.042098 0.74049,8.927097 -0.48999,2.875 -0.18872,5.762043 -0.44881,8.656042 -0.20801,2.469001 -1.19702,4.729434 -2.73902,6.771434 -2.812,3.708001 -5.49918,7.103849 -9.19717,9.707849 -0.0997,0.115858 -0.18386,0.237823 -0.27891,0.355513 -0.0338,-0.537523 -0.12303,-1.071073 -0.28382,-1.594896 -0.739,-2.448 -2.21879,-4.718936 -2.09379,-7.291936 0.01,-0.052 -0.0205,-0.103903 -0.0825,-0.114903 -0.053,-0.01 -0.10508,0.03148 -0.10508,0.08348 -0.604,2.594 0.59354,5.177466 1.39554,7.646466 0.26511,0.814918 0.2804,1.669919 0.26221,2.525906 -3.41149,5.27138 -3.11518,12.0047 -4.79353,18.078108 -0.15982,0.577581 -0.38773,1.117122 -0.63933,1.644 -0.061,0.106804 -0.11127,0.217319 -0.17285,0.324086 -1.43798,2.542007 -3.06227,4.803128 -4.09428,7.500136 -1.188,3.094997 -1.32259,6.322676 -1.66659,9.55268 0.562,2.905011 2.05166,5.552454 4.45766,7.427464 2.2783,1.78738 4.82223,3.47829 7.62387,3.84779 -3.88871,2.08465 -6.87743,2.67923 -11.38622,3.75547 -3.39176,0.80982 -6.60167,1.64957 -9.82766,2.48466 0.92296,-0.89336 1.59968,-2.04813 1.86202,-3.34889 0.302,-1.512 0.27077,-2.94882 0.17677,-4.44882 -0.177,-3.01 -1.8542,-5.488365 -3.1672,-8.145365 -1.155,-2.354 -2.19705,-4.625688 -2.79205,-7.250688 -0.812,-3.636 -1.38497,-7.488129 0.87503,-10.624129 0.031,-0.052 0.0128,-0.11433 -0.0412,-0.14633 -0.041,-0.02 -0.10355,-0.0088 -0.13455,0.04223 -4.896,7.562 0.20818,16.385459 3.77118,23.374462 1.188,3.917 1.11425,9.8125 -3.52075,11.2615 -0.0491,0.0149 -0.0934,0.0389 -0.13356,0.0678 -1.08305,0.27205 -2.12494,0.55212 -3.24479,0.81709 -3.261,0.781 -5.74023,2.91678 -8.86523,3.95778 -1.364,0.44799 -2.79135,0.43825 -4.14535,0.91726 -0.18224,0.0644 -0.34364,0.15507 -0.52247,0.22293 -2.42678,0.34372 -4.88993,-0.15434 -6.99731,-1.74417 -1.53,-1.146 -2.63605,-2.48873 -3.61405,-4.12473 -3.114998,-5.26 -2.89516,-11.21883 -5.19716,-16.613832 -1.323,-3.104 -3.458509,-5.802039 -6.438509,-7.615039 -5.750661,-3.480098 -14.846744,-3.279265 -18.031949,3.173097 -1.983299,-1.085838 -4.224755,-1.499464 -6.593678,-0.735577 -1.636,0.531 -3.11468,1.45825 -4.07268,3.00025 -0.174769,0.278343 -0.327052,0.560018 -0.468452,0.843606 -1.717055,1.789987 -3.872798,3.137707 -6.445383,3.145599 -3.845,0.01 -7.854043,-0.332891 -11.396043,1.583116 -0.81407,0.43908 -1.504338,0.99128 -2.132093,1.60471 -0.0051,0.004 -0.01109,0.006 -0.01571,0.0108 -0.0049,0.006 -0.0098,0.0124 -0.01473,0.0187 -1.590024,1.56408 -2.766476,3.52974 -4.44096,5.11565 -1.312,1.239 -2.928316,1.99945 -4.750316,1.72845 -0.601297,-0.0872 -1.135915,-0.30831 -1.611591,-0.61969 -0.338003,-0.38013 -0.662422,-0.78236 -0.963419,-1.22269 -2,-2.948 -3.333047,-6.22958 -2.573047,-9.667583 0.011,-0.052 -0.02067,-0.103921 -0.07267,-0.113921 -0.062,-0.011 -0.113921,0.03148 -0.113921,0.08348 -0.979,3.604004 -0.178089,7.489534 2.196911,10.437534 3.562,4.396 8.53039,6.97934 11.54139,11.70834 0.031,0.052 0.09533,0.0722 0.14633,0.0422 0.052,-0.031 0.06243,-0.10415 0.03143,-0.15615 -1.208,-1.698 -2.053505,-3.5837 -3.479505,-5.1677 -0.467967,-0.52067 -0.96453,-0.9911 -1.476065,-1.43678 -0.359607,-0.89482 -0.474446,-1.86516 -0.159096,-2.8333 0.605632,-0.65765 1.200204,-1.31246 1.773634,-1.98379 2.438728,-2.13551 3.712457,-5.15695 6.612337,-6.76751 3.875,-2.146 8.136125,-1.10456 12.323125,-1.613555 1.844564,-0.226642 3.269098,-1.230803 4.453728,-2.51314 -0.238993,0.742917 -0.393421,1.509029 -0.486129,2.304939 -0.156,1.332996 0.332698,2.571306 0.509698,3.874306 0.011,0.052 0.0619,0.0945 0.114904,0.0835 0.064,-0.01 0.09526,-0.0519 0.09526,-0.11392 -0.552,-3.188 -0.02995,-6.906099 2.573047,-9.146099 2.156,-1.863 5.093304,-2.154986 7.655304,-1.041986 2.656,1.156 4.531552,3.271251 6.052552,5.740251 2.281,3.708004 3.697918,7.478634 5.374918,11.363634 2.021,4.677 5.645827,8.56206 10.311827,10.57306 0.094,0.062 0.228893,0.0301 0.279893,-0.0619 0.062,-0.094 0.03113,-0.22887 -0.06187,-0.28087 -4.354,-2.344 -7.740079,-6.22945 -9.750079,-10.77145 -1.583,-3.573 -2.958218,-7.06183 -4.865218,-10.530827 -1.356464,-2.454605 -3.374107,-4.866454 -5.795247,-6.297089 2.619924,-3.672533 7.310631,-5.106696 11.755483,-4.494975 5.302,0.739 9.667014,4.280724 11.562014,9.166724 2.613,6.759997 2.322522,14.697937 7.917515,20.114937 1.81316,1.74979 4.08828,2.72805 6.45128,2.92758 -1.03303,0.5077 -2.04763,1.06908 -3.07882,1.70685 -4.281,2.646 -7.395601,6.06171 -10.707602,9.7707 -3.678,4.12502 -8.167035,7.09436 -13.698036,8.14635 -2.062,0.39601 -4.021551,0.37449 -6.052551,0.13552 -7.271,-0.844 -12.572396,-6.18773 -19.103398,-8.94673 -4.405999,-1.85401 -9.082989,-2.95759 -13.864989,-2.92758 -0.052,0 -0.09428,0.0522 -0.09428,0.10312 0,0.0509 0.04525,0.1041 0.09624,0.1041 3.979,0.10395 7.811587,1.2087 11.530588,2.6467 5.052,1.958 9.292616,5.09409 14.104616,7.66709 5.228086,2.7839 11.457097,2.67511 16.93595,1.08716 -3.939279,2.28885 -10.798804,9.07193 -12.159118,11.49523 -1.315735,0.64604 -2.844736,0.71401 -4.222939,0.28088 -8.594,-2.698 -16.135049,-7.25007 -24.43805,-10.35406 -3.279999,-1.792 -6.738632,-3.09406 -10.322631,-4.27106 -0.867538,-0.28455 -1.758597,-0.49751 -2.65063,-0.70513 1.472256,0.0312 2.949062,0.0243 4.409533,0.0805 2.365001,0.0941 4.656129,0.312 7.062129,0.822 4.75,1.012 9.25031,1.53064 13.573312,3.41665 0.06199,0.031 0.135151,1.6e-4 0.15615,-0.0619 0.021,-0.062 -0.01064,-0.1362 -0.07267,-0.15615 -2.427001,-1.01102 -4.729838,-2.43774 -7.406839,-2.64572 -3.687999,-1.156 -7.457208,-1.82307 -11.332208,-2.18807 -5.135999,-0.48999 -10.4896,0.82322 -15.146601,-2.47877 -4.134999,-2.92801 -7.323237,-5.98996 -10.344237,-10.03095 -0.177919,-0.23435 -0.376626,-0.43923 -0.577462,-0.6413 1.381866,0.7921 2.859613,1.42946 4.433104,1.9013 3.958001,1.177 7.76067,2.18795 11.63567,3.50995 1.302999,0.438 2.323128,1.31227 3.500129,1.95827 0.053,0.031 0.114345,0.0114 0.146329,-0.0422 0.031,-0.0521 0.01065,-0.11446 -0.03143,-0.13651 -3.052,-2.17699 -6.322758,-3.81156 -10.041756,-4.79156 -2.750001,-0.71899 -5.39652,-1.32324 -7.91752,-2.56225 C 6.0562736,118.3296 3.8178304,108.76224 2.56627,100.16573 c 2.7090067,3.58526 7.2353323,5.85921 11.597369,6.83134 0.04472,0.0181 0.08764,0.009 0.126688,-0.006 1.955326,2.7059 4.782451,4.89316 7.560043,6.69385 0.052,0.031 0.125935,0.0206 0.167935,-0.0314 0.042,-0.052 0.03039,-0.13578 -0.02161,-0.17678 -4.406,-3.562 -9.405398,-7.75008 -10.061398,-13.750085 0,-0.052 -0.05288,-0.09349 -0.115885,-0.08249 -0.052,0.01 -0.08367,0.06192 -0.07267,0.113921 0.0456,2.537694 0.886666,4.762694 2.192,6.724294 C 9.7029198,104.69267 5.1653842,102.96427 2.5693783,98.746611 0.59037937,95.538613 0.74746491,92.01809 0.97546432,88.527098 1.2564651,84.29809 2.6941595,80.359874 4.0061596,76.318876 4.185656,75.755909 4.2347861,75.181355 4.2438227,74.603185 c 0.05268,0.393827 0.073347,0.776616 0.150258,1.183405 0.3750003,1.969006 1.3541176,3.562294 2.0211183,5.354293 0.011022,0.05207 0.07174,0.07289 0.124724,0.06187 0.050001,-0.0171 0.081889,-0.0697 0.060889,-0.121777 -0.6670008,-1.511 -0.9885343,-3.062253 -1.3955341,-4.698265 -0.4480018,-1.822995 -0.5830545,-3.521089 -0.2710538,-5.365096 0.6039993,-3.562002 1.7918058,-6.676703 3.7918064,-9.770703 1.8519465,-2.874322 4.0433985,-5.203301 5.8070325,-7.931268 -0.258844,2.122911 0.01254,4.321515 0.265161,6.472881 0.08299,0.780001 0.593706,1.364938 0.947706,2.030939 0.03001,0.042 0.08351,0.07224 0.135527,0.04125 0.053,-0.01999 0.07403,-0.08174 0.05303,-0.123742 -0.635001,-0.896 -0.708914,-1.937484 -0.771914,-2.987484 -0.156007,-2.573 0.0943,-5.146627 0.750308,-7.637627 3.511,-7.135001 8.917501,-12.875068 15.042502,-18.135068 9.485463,-8.133348 20.200538,-12.784241 30.964945,-18.908946 -1.796026,1.788482 -3.375266,3.797588 -4.674695,6.032911 -0.042,0.052 -0.04139,0.124953 0.02161,0.166953 0.052,0.042 0.124954,0.04238 0.166953,-0.02062 l -0.02161,-0.0098 c 2.279999,-2.833001 4.40494,-5.61329 7.510938,-7.875291 3.167001,-2.311999 6.396606,-3.8540142 9.885606,-5.2600138 5.479,-2.1979997 11.30151,-2.7193004 17.124509,-3.052301 3.896001,-0.2189989 7.635043,-0.2188062 11.615051,-1.0518064 2.667,-0.5620015 5.03151,-1.0118638 7.69851,-1.5418638 1.901,-0.3750002 3.73123,-0.56499824 5.55661,-0.57549816 z M 101.39302,5.6749997 c -0.0475,0.00402 -0.0845,0.045038 -0.0845,0.1041004 0,0.053 0.0423,0.095262 0.0943,0.095262 0.062,0 0.1041,-0.042262 0.1041,-0.095262 0,-0.062 -0.0421,-0.1041004 -0.1041,-0.1041004 -0.003,-6.25e-5 -0.007,-2.681e-4 -0.01,0 z m -0.97324,0.72281 c -0.047,0 -0.0941,0.018496 -0.13061,0.054996 -3.021004,2.197 -5.083048,5.2615343 -8.053048,7.6975343 -3.125,2.553 -5.957699,5.095089 -9.551699,6.845089 -7.76,3.771 -17.156874,2.718542 -23.844874,8.957542 -1.844,1.729 -3.957297,2.999903 -6.395297,3.676903 -1.78,0.49 -3.521294,0.948233 -5.354294,1.083233 -1.271,0.094 -2.510004,2.29e-4 -3.781004,0.04223 -0.76,0.021 -1.510071,-0.239978 -2.188071,-0.603978 -0.053,-0.03 -0.114527,-0.01175 -0.135527,0.04125 -0.03,0.055 -0.0098,0.117473 0.04223,0.138473 1.854,1.021 4.011373,1.167154 6.062373,1.197154 1.16865,0.02356 2.319943,-0.153025 3.4579,-0.414437 -5.482207,3.486909 -10.622453,6.578527 -14.873584,11.454967 -1.649712,1.90258 -3.110233,3.88085 -4.428194,5.939613 -1.302748,1.493803 -2.662575,2.949148 -4.207226,4.300523 -1.417,1.229 -2.969365,1.999717 -4.802365,2.426717 -0.989,0.229 -1.958151,0.03173 -2.896151,-0.259269 -0.062,-0.01 -0.115706,0.02067 -0.125706,0.07267 -0.021,0.053 0.01184,0.104724 0.06384,0.124724 3.784956,1.467954 7.112787,-0.361022 9.809985,-2.988466 -0.363702,0.675773 -0.719742,1.357043 -1.060645,2.050581 -1.688,2.198 -3.70738,3.928555 -5.40438,6.271555 -1.74,2.417 -2.604452,4.999763 -3.208452,7.739763 -0.021,0.052 0.01087,0.103725 0.06187,0.124725 0.051,0.011 0.102742,-0.0099 0.123742,-0.06187 1.094,-5.625 5.511853,-9.437885 9.104853,-13.541885 2.229,-4.135 4.801552,-8.062197 7.696552,-11.771197 4.812,-4.823 10.553182,-8.604122 16.375182,-12.104122 0.163829,-0.08605 0.235163,-0.271081 0.19838,-0.444882 0.07246,-0.02254 0.14568,-0.04307 0.218022,-0.0658 4.137,-1.302 6.845717,-4.749957 10.646717,-6.687957 4.938,-2.521 10.416727,-2.780014 15.687727,-4.438014 3.270523,-1.017469 6.071715,-2.706289 8.727734,-4.691391 6.265516,-3.333456 13.64564,-4.001547 20.7307,-4.650143 2.281,-0.208 4.479,-0.791462 6.521,-1.947462 1.427,-0.812 2.59401,-1.874721 4.00001,-2.645721 0.052,-0.03 0.0722,-0.09433 0.0413,-0.1463297 -0.031,-0.052 -0.0934,-0.062427 -0.14535,-0.031427 -7.375,5.4689997 -16.94756,3.3867807 -25.396556,6.0947807 -1.051056,0.334158 -2.065995,0.732403 -3.049355,1.184387 0.735566,-0.608994 1.469577,-1.22691 2.206731,-1.855146 2.822,-2.405 4.969216,-5.1878639 7.38621,-7.8438639 0.073,-0.073 0.073,-0.1880538 0,-0.2710538 -0.0365,-0.0365 -0.0836,-0.054996 -0.13062,-0.054996 z m 32.17094,7.2408673 c -0.0249,-0.0064 -0.0512,-0.0027 -0.0717,0.01277 -0.043,0.034 -0.0644,0.09631 -0.0334,0.147312 1.031,1.219 1.5318,2.698061 1.9288,4.271061 0.405,1.646 0.71838,3.250645 0.58238,4.896645 -0.115,1.344 0.0521,2.645401 -0.11491,3.978401 -0.458,3.761 -2.13518,7.042107 -3.77118,10.406107 -1.822,3.781 -4.2608,6.802108 -6.6968,10.406108 -1.26367,1.858288 -2.60724,3.686934 -4.18463,5.149039 -0.10403,0.03093 -0.19354,0.106066 -0.23374,0.214093 -0.0197,0.01751 -0.0402,0.03368 -0.0599,0.05107 l -0.0324,-0.0069 c -0.177,-0.011 -0.32235,0.104053 -0.36435,0.271053 l -0.008,0.05303 -0.0138,0.03928 c -1.52036,1.24 -3.25944,2.12581 -5.34251,2.385469 -3.136,0.396 -5.98947,-1.136573 -8.68747,-2.708573 -4.312,-2.531 -7.604066,-5.572219 -11.833066,-8.427219 -1.572,-1.062 -3.249814,-1.646068 -5.051814,-1.969068 -0.073,-0.021 -0.13515,0.02049 -0.15615,0.0825 -0.021,0.073 0.02049,0.136151 0.08249,0.156151 3.312,0.802 6.000402,2.864863 8.636402,5.103863 4.280008,3.646 8.437588,7.124695 14.051588,8.510695 1.635,0.405 3.21914,0.447653 4.76014,-0.145347 0.24269,-0.09395 0.47073,-0.205374 0.70415,-0.310337 0.0883,0.0015 0.17653,0.0089 0.26516,0.02161 0.40541,0.723609 0.67537,1.491518 0.85932,2.283333 -0.006,0.03178 -0.0129,0.06346 -0.0187,0.09526 l -0.0953,0.375154 c -0.021,0.042 -0.0206,0.08272 -0.0206,0.124724 l 0.22392,-0.06776 0.0216,0.0098 c 0.32415,1.777673 0.26365,3.657879 0.2907,5.448573 -1.031,6.438 -4.3649,12.042444 -8.4999,17.292444 -0.38015,0.483647 -0.80084,1.059561 -0.93493,1.684266 -0.64423,-0.539357 -1.34539,-1.0095 -2.12031,-1.383749 -6.93801,-3.333 -14.021472,1.083896 -21.072472,1.594896 -5.448,0.396 -11.052638,-2.04238 -14.322638,-6.50038 -0.031,-0.042 -0.09354,-0.06243 -0.134545,-0.03143 -0.053,0.032 -0.06341,0.09533 -0.03241,0.14633 1.594,2.594 4.021205,4.375251 6.729205,5.740251 6.521,3.292 13.239659,0.292114 20.020659,-0.937886 3.375001,-0.615 6.999661,-0.677035 9.718661,1.645965 2.042,1.738 3.69846,3.707211 4.90646,6.071211 1.292,2.511 2.27125,5.031598 3.00025,7.803598 0.552,2.094 0.85361,4.12475 1.88461,6.04175 0.833,1.53 1.70783,3.0104 2.96883,4.1974 0.062,0.053 0.1562,0.062 0.2082,0 0.062,-0.052 0.0618,-0.1462 0.0108,-0.2082 -3.928,-5.427 -3.88533,-12.405197 -7.27033,-18.292197 -1.02023,-1.774607 -2.13324,-3.536252 -3.52566,-4.976193 0.009,-0.06493 0.005,-0.132039 -0.0147,-0.199362 -0.208,-0.698 0.31225,-1.292491 0.69825,-1.781491 3.583,-4.583 6.45764,-9.17681 8.02064,-14.69681 0.8718,-3.062641 1.1258,-6.486717 0.22686,-9.54286 0.16611,-0.799638 0.377,-1.591893 0.65014,-2.359935 0.27481,-0.629691 0.60771,-1.234973 1.00761,-1.806043 l 0.15222,-0.220968 c 3.89366,-3.339469 6.38818,-8.291718 9.46331,-12.355534 1.93981,-3.395351 3.7377,-6.822301 4.89272,-10.616272 0.14281,-0.02197 0.26892,-0.119616 0.31229,-0.265161 0.333,-0.928 0.54167,-1.854197 1.11466,-2.729197 2.823,-4.333 7.87571,-6.542373 9.16771,-11.542373 0.021,-0.052 -0.0109,-0.103724 -0.0628,-0.124724 -0.052,-0.011 -0.11375,0.0099 -0.12375,0.06187 -0.479,2.155 -2.12511,3.572548 -3.72011,5.011548 -2.09431,1.886583 -4.16008,3.484036 -5.82569,5.830602 0.40718,-2.820261 0.28121,-5.647401 -0.40069,-8.521498 -0.438,-1.875 -1.5947,-3.333595 -2.6467,-4.844595 -0.015,-0.021 -0.038,-0.03684 -0.0629,-0.04321 z m -19.80362,8.603011 c -0.0246,-0.0024 -0.0507,0.006 -0.0717,0.02652 -1.271,1.229 -2.68861,2.114924 -4.24061,3.072924 -0.71612,0.441154 -1.25558,1.030349 -1.62338,1.697033 -0.14294,-0.0051 -0.27213,0.09161 -0.29953,0.227842 -0.0696,0.0271 -0.13042,0.08184 -0.16696,0.145347 l -0.34373,0.438008 c -0.1468,0.392663 -0.34562,0.769229 -0.43211,1.179476 -0.0973,0.05637 -0.12538,0.177776 -0.19543,0.255341 l -0.15517,0.172846 -0.12571,0.01375 c -0.5,0.385 -1.17646,0.260229 -1.72846,0.04223 -0.0528,-0.0197 -0.1142,-0.0094 -0.16008,0.02161 -2.78101,-0.804552 -5.665196,-1.051858 -8.550957,-1.027255 -2.667,0.021 -5.292767,0.718656 -7.958767,0.895656 -0.052,0 -0.0933,0.0531 -0.0933,0.104101 0,0.051 0.04326,0.105082 0.09526,0.105082 3.698,-0.479 7.363613,-0.988007 11.145613,-0.438007 2.262551,0.331599 4.444781,0.713139 6.526901,1.537935 l 0.0373,0.05401 c 0.073,0.125 0.20771,0.197398 0.34471,0.197398 l 0.15909,-0.0069 0.007,0.02553 c 0.0899,0.03131 0.17488,0.0491 0.25534,0.05598 0.266,0.123013 0.53019,0.256542 0.79254,0.397742 0.0668,0.121608 0.14779,0.242046 0.24552,0.360422 0.072,0.136 0.24977,0.187904 0.39577,0.114904 0.0287,-0.01766 0.0528,-0.04086 0.0737,-0.0658 0.009,0.0057 0.0183,0.01101 0.0275,0.0167 0.097,0.05984 0.19055,0.122369 0.28578,0.183648 0.0607,0.0965 0.12371,0.190951 0.19151,0.283821 0.10876,0.163571 0.30507,0.232358 0.47729,0.16499 2.33202,1.644928 4.1743,3.702682 6.1704,5.679361 0.104,0.125 0.29162,0.136427 0.40462,0.03143 0.125,-0.104 0.13642,-0.281581 0.0314,-0.406581 -2.0269,-2.289231 -4.10167,-4.697564 -6.69777,-6.356996 -1.05387,-1.952594 -0.50914,-4.41258 1.40633,-5.789355 1.427,-1.03 2.58324,-2.104878 3.82324,-3.239878 0.042,-0.031 0.0418,-0.09453 0.01,-0.135527 -0.0155,-0.02 -0.0382,-0.03298 -0.0629,-0.03535 z m -6.97668,6.484666 c -0.009,0.02081 -0.018,0.04187 -0.0265,0.06285 l -0.005,-9.82e-4 z m 0.55291,1.641054 c 0.028,0.138164 0.0605,0.275557 0.10017,0.411491 -0.0186,-0.0096 -0.0373,-0.01894 -0.056,-0.02848 -0.027,-0.126613 -0.0409,-0.254472 -0.0442,-0.383011 z m -1.93077,0.352566 c 0.10562,0.04203 0.21409,0.07143 0.31917,0.115885 l -0.003,0.06482 z m -19.653363,4.914323 c -2.905,1.094 -5.875376,1.438118 -9.021376,2.021118 -3.156,0.595 -6.031297,1.177462 -9.135297,1.947462 -3.906,0.969 -7.385247,2.479222 -9.905247,5.906222 -0.76,1.031 -1.677298,1.865273 -2.833298,2.396273 -3.958,1.854 -7.395853,4.238458 -9.926853,8.030458 -0.579977,0.871399 -0.942418,1.786695 -1.174566,2.726251 -0.01973,0.01292 -0.03917,0.02747 -0.05696,0.04419 -2.489,1.646 -4.80162,3.625118 -6.10362,6.405118 -1.021,2.156 -1.322889,4.490007 -1.978889,6.740007 -0.011,0.052 0.02067,0.103903 0.07267,0.114903 0.052,0.021 0.103724,-0.0099 0.124724,-0.06187 0.987508,-4.876887 3.58408,-9.360042 7.736817,-12.138494 -0.252683,1.678522 -0.217895,3.409536 -0.340782,5.096989 -0.03,0.47 -0.249093,0.938089 -0.488093,1.365089 -0.021,0.052 5e-5,0.114545 0.05205,0.134545 0.051,0.03 0.102563,0.01077 0.133563,-0.04223 0.229,-0.53 0.542208,-1.030538 0.646208,-1.614538 0.385,-2.011 0.571986,-3.844942 1.041986,-5.811942 0.635,-2.719 2.603577,-4.593903 4.571577,-6.416903 2.365,-2.167 5.323598,-2.937714 7.803598,-4.947714 1.447,-1.188 2.426806,-2.655333 3.791806,-3.927333 1.989,-1.865 4.529982,-2.478975 7.124982,-3.124975 5.021,-1.25 9.749971,-2.135179 14.687971,-3.552179 1.115,-0.323 2.198305,-0.64543 3.271305,-1.07243 0.062,-0.031 0.08287,-0.10415 0.06187,-0.15615 -0.031,-0.062 -0.09415,-0.08287 -0.156151,-0.06187 z m 4.219011,14.268623 c -0.749235,0.01022 -1.502221,0.179517 -2.231283,0.553892 -1.417,0.719 -2.780932,1.458065 -4.332932,1.750065 -7.771,-0.781 -14.239598,4.542523 -19.311598,9.780523 -0.227551,0.438157 -0.450247,0.881241 -0.674688,1.32286 -0.618318,0.523278 -1.272701,1.011646 -2.002459,1.427943 -3.155,1.803 -6.458322,2.64567 -9.572322,4.51167 -3.917,2.344 -7.521308,5.15482 -9.792308,9.05182 -0.07924,0.251815 -0.153426,0.506642 -0.231771,0.759147 -0.168319,0.206874 -0.357543,0.400373 -0.580409,0.572552 -2.886,2.219 -5.500792,4.073032 -7.573792,7.177032 -1.958,2.927 -2.737487,6.218323 -2.384487,9.572323 0,0.104 0.0934,0.188559 0.197398,0.188559 0.104,0 0.19838,-0.08356 0.19838,-0.188559 -0.188,-5.885 3.196967,-11.155512 8.166967,-14.603512 0.623859,-0.436738 1.149037,-0.933242 1.596861,-1.477047 -0.818448,2.73103 -1.538801,5.499498 -1.900323,8.311333 0,0.053 0.05212,0.09526 0.103118,0.09526 0.053,-0.003 0.105083,-0.04523 0.105083,-0.09723 0.428,-3.447 1.990512,-6.687903 3.095512,-9.978903 2.25,-3.729 5.759699,-6.395437 9.551699,-8.634437 3.094,-1.812 6.364204,-2.625638 9.469204,-4.458638 0.232934,-0.136435 0.453648,-0.282843 0.668796,-0.435061 -0.921999,1.965392 -1.706605,3.988281 -2.086918,6.1321 -0.01,0.053 0.01087,0.115491 0.06187,0.137491 0.052,0.009 0.114724,-0.01184 0.124724,-0.06383 0.627036,-2.725293 2.030449,-5.140299 3.436294,-7.53058 0.949709,-0.962542 1.766613,-2.043359 2.623133,-3.091584 2.062611,-1.937132 4.324608,-3.624549 6.837232,-5.294387 3.312,-2.198 6.957932,-2.177144 10.634932,-2.458144 1.833,-0.136 3.178072,-1.541186 4.928072,-2.072186 1.854,-0.562 3.791491,-5.7e-4 5.343491,1.07243 0.073,0.042 0.15638,0.02095 0.19838,-0.05205 0.042,-0.073 0.02097,-0.167201 -0.05303,-0.208201 -1.332375,-1.045687 -2.964508,-1.795138 -4.612824,-1.772652 z m 29.410312,5.398487 c -0.0102,0.02972 -0.0198,0.05949 -0.0295,0.08937 -0.018,-0.01398 -0.037,-0.02526 -0.057,-0.03535 0.0291,-0.01771 0.0575,-0.03613 0.0864,-0.05401 z m -1.28554,0.955563 c 0.003,7.1e-4 0.006,2.57e-4 0.009,9.82e-4 l 0.0216,0.0098 z m 0.88485,0.149276 0.14437,0.01768 c -0.0104,0.08301 -0.0191,0.166776 -0.0265,0.25043 -0.0398,-0.08917 -0.0757,-0.179876 -0.11785,-0.268107 z M 34.677464,109.46207 c -0.452809,0.74158 -0.524369,1.63258 -0.351585,2.4935 -0.950918,-0.75917 -1.919692,-1.48478 -2.834279,-2.2961 1.04398,0.29232 2.153043,0.19734 3.185864,-0.1974 z m 38.586859,0.30936 c -0.03775,0 -0.07417,0.0123 -0.100172,0.0383 -2.297843,2.6777 -5.54432,4.19214 -8.94772,4.89763 -0.601922,0.0207 -1.201366,0.10895 -1.801133,0.19739 -3.032725,-0.17 -6.069901,-0.64208 -9.02334,0.34177 -0.052,0 -0.0935,0.0529 -0.0825,0.11392 0.0027,0.0145 0.0086,0.0265 0.0167,0.0373 -0.496504,0.1751 -0.986056,0.37914 -1.46428,0.62067 -0.052,0.021 -0.07223,0.0825 -0.04223,0.13553 0.02,0.052 0.08353,0.0733 0.135526,0.0413 4.76,-2.28 10.112918,-0.62511 14.416918,2.41689 0.181435,0.12772 0.354169,0.25452 0.532286,0.38203 0.09834,0.1309 0.205419,0.2579 0.324086,0.37908 l -0.0088,-0.0854 c 0.0062,0.003 0.01233,0.006 0.01866,0.009 0.06323,0.0866 0.157356,0.14025 0.260251,0.14928 0.0104,0 0.02026,-0.002 0.03045,-0.003 3.210508,2.33837 5.966111,4.63452 9.384745,6.81464 4.812,3.073 10.332975,4.17708 15.728975,3.01008 0.094,-0.01 0.146526,-0.0936 0.135526,-0.18758 -0.021,-0.083 -0.104397,-0.14572 -0.197397,-0.12472 -4.74,0.364 -9.604237,-0.1979 -13.906237,-2.6359 -4.207115,-2.37607 -7.538621,-5.48018 -11.454967,-8.15126 -0.446519,-0.69929 -0.485281,-1.53793 -0.679599,-2.34815 l -0.05696,-0.31328 c 1.920908,-0.53531 3.660266,-1.72125 4.881914,-3.31059 0.06241,-0.0485 0.08629,-0.12412 0.07464,-0.1974 0.707645,-0.59559 1.358056,-1.25842 1.932731,-1.98085 0.052,-0.052 0.052,-0.1462 0,-0.2082 -0.031,-0.026 -0.07028,-0.0383 -0.108029,-0.0383 z m -10.208709,5.55365 0.002,0.0147 c -0.0063,0.0175 -0.01078,0.0354 -0.01375,0.054 l -0.03634,-0.0668 c 0.01606,-6.2e-4 0.03207,-0.001 0.04812,-0.002 z m -0.712008,0.01 c 0.08172,10e-4 0.163851,0.002 0.24552,0.002 -0.03995,0.0848 -0.04244,0.17677 -0.01375,0.2573 -0.224332,-0.0837 -0.449602,-0.16116 -0.676652,-0.23373 0.148247,-0.007 0.296566,-0.0161 0.444881,-0.0255 z m 0.841642,0.50577 c 0.05131,0.002 0.102687,0.002 0.154186,0.002 l 0.211147,0.0923 c 0.01785,0.005 0.0352,0.0108 0.05303,0.0157 5.55e-4,0.0267 0.0052,0.0532 0.01277,0.0795 -0.142916,-0.0657 -0.286724,-0.12842 -0.431133,-0.18955 z m 2.703663,0.40953 c 0.0145,0.0831 0.03042,0.16565 0.04616,0.24847 -0.05797,-0.0772 -0.115708,-0.15477 -0.175792,-0.22883 z" />
  
  </g>
</svg>
