<?xml version="1.0" encoding="iso-8859-1"?>
<!-- Uploaded to: SVG Repo, www.svgrepo.com, Generator: SVG Repo Mixer Tools -->
<svg height="800px" width="800px" version="1.1" id="Layer_1" xmlns="http://www.w3.org/2000/svg" xmlns:xlink="http://www.w3.org/1999/xlink" 
	 viewBox="0 0 511.999 511.999" xml:space="preserve">
<polygon style="fill:#61ACD2;" points="498.674,256.001 275.578,70.767 296.899,194.7 13.326,194.7 13.326,322.632 296.899,322.632 
	275.578,441.233 "/>
<path d="M507.185,245.748L284.09,60.514c-4.292-3.563-10.349-4.076-15.183-1.285c-4.829,2.792-7.411,8.298-6.465,13.797
	l18.641,108.347H13.052C5.692,181.373,0,187.339,0,194.699V322.63c0,7.36,5.692,13.326,13.052,13.326h267.912l-18.502,102.918
	c-0.991,5.509,1.567,11.05,6.403,13.87c2.086,1.217,4.403,1.814,6.71,1.814c3.042,0,6.066-1.039,8.515-3.073l223.095-185.234
	c3.049-2.532,4.813-6.29,4.813-10.253S510.234,248.28,507.185,245.748z M295.154,407.659l14.861-82.67
	c0.698-3.885-0.361-7.88-2.893-10.907c-2.531-3.028-6.275-4.777-10.223-4.777H26.652V208.025h270.247
	c3.929,0,7.659-1.734,10.191-4.739c2.531-3.005,3.609-6.974,2.942-10.846l-15.204-88.369l182.983,151.928L295.154,407.659z"/>
</svg>